<?xml version="1.0" encoding="utf-8" standalone="no"?>
<!DOCTYPE svg PUBLIC "-//W3C//DTD SVG 1.1//EN"
  "http://www.w3.org/Graphics/SVG/1.1/DTD/svg11.dtd">
<!-- Created with matplotlib (https://matplotlib.org/) -->
<svg height="720pt" version="1.1" viewBox="0 0 1152 720" width="1152pt" xmlns="http://www.w3.org/2000/svg" xmlns:xlink="http://www.w3.org/1999/xlink">
 <defs>
  <style type="text/css">
*{stroke-linecap:butt;stroke-linejoin:round;}
  </style>
 </defs>
 <g id="figure_1">
  <g id="patch_1">
   <path d="M 0 720 
L 1152 720 
L 1152 0 
L 0 0 
z
" style="fill:#ffffff;"/>
  </g>
  <g id="axes_1">
   <g id="patch_2">
    <path d="M 144 333.490909 
L 1036.8 333.490909 
L 1036.8 86.4 
L 144 86.4 
z
" style="fill:#ffffff;"/>
   </g>
   <g id="matplotlib.axis_1">
    <g id="xtick_1">
     <g id="line2d_1">
      <path clip-path="url(#p7f0c99879b)" d="M 204.160297 333.490909 
L 204.160297 86.4 
" style="fill:none;stroke:#b0b0b0;stroke-linecap:square;stroke-width:0.8;"/>
     </g>
     <g id="line2d_2">
      <defs>
       <path d="M 0 0 
L 0 3.5 
" id="m0354adeec1" style="stroke:#000000;stroke-width:0.8;"/>
      </defs>
      <g>
       <use style="stroke:#000000;stroke-width:0.8;" x="204.160297" xlink:href="#m0354adeec1" y="333.490909"/>
      </g>
     </g>
     <g id="text_1">
      <!-- 1950 -->
      <defs>
       <path d="M 12.40625 8.296875 
L 28.515625 8.296875 
L 28.515625 63.921875 
L 10.984375 60.40625 
L 10.984375 69.390625 
L 28.421875 72.90625 
L 38.28125 72.90625 
L 38.28125 8.296875 
L 54.390625 8.296875 
L 54.390625 0 
L 12.40625 0 
z
" id="DejaVuSans-49"/>
       <path d="M 10.984375 1.515625 
L 10.984375 10.5 
Q 14.703125 8.734375 18.5 7.8125 
Q 22.3125 6.890625 25.984375 6.890625 
Q 35.75 6.890625 40.890625 13.453125 
Q 46.046875 20.015625 46.78125 33.40625 
Q 43.953125 29.203125 39.59375 26.953125 
Q 35.25 24.703125 29.984375 24.703125 
Q 19.046875 24.703125 12.671875 31.3125 
Q 6.296875 37.9375 6.296875 49.421875 
Q 6.296875 60.640625 12.9375 67.421875 
Q 19.578125 74.21875 30.609375 74.21875 
Q 43.265625 74.21875 49.921875 64.515625 
Q 56.59375 54.828125 56.59375 36.375 
Q 56.59375 19.140625 48.40625 8.859375 
Q 40.234375 -1.421875 26.421875 -1.421875 
Q 22.703125 -1.421875 18.890625 -0.6875 
Q 15.09375 0.046875 10.984375 1.515625 
z
M 30.609375 32.421875 
Q 37.25 32.421875 41.125 36.953125 
Q 45.015625 41.5 45.015625 49.421875 
Q 45.015625 57.28125 41.125 61.84375 
Q 37.25 66.40625 30.609375 66.40625 
Q 23.96875 66.40625 20.09375 61.84375 
Q 16.21875 57.28125 16.21875 49.421875 
Q 16.21875 41.5 20.09375 36.953125 
Q 23.96875 32.421875 30.609375 32.421875 
z
" id="DejaVuSans-57"/>
       <path d="M 10.796875 72.90625 
L 49.515625 72.90625 
L 49.515625 64.59375 
L 19.828125 64.59375 
L 19.828125 46.734375 
Q 21.96875 47.46875 24.109375 47.828125 
Q 26.265625 48.1875 28.421875 48.1875 
Q 40.625 48.1875 47.75 41.5 
Q 54.890625 34.8125 54.890625 23.390625 
Q 54.890625 11.625 47.5625 5.09375 
Q 40.234375 -1.421875 26.90625 -1.421875 
Q 22.3125 -1.421875 17.546875 -0.640625 
Q 12.796875 0.140625 7.71875 1.703125 
L 7.71875 11.625 
Q 12.109375 9.234375 16.796875 8.0625 
Q 21.484375 6.890625 26.703125 6.890625 
Q 35.15625 6.890625 40.078125 11.328125 
Q 45.015625 15.765625 45.015625 23.390625 
Q 45.015625 31 40.078125 35.4375 
Q 35.15625 39.890625 26.703125 39.890625 
Q 22.75 39.890625 18.8125 39.015625 
Q 14.890625 38.140625 10.796875 36.28125 
z
" id="DejaVuSans-53"/>
       <path d="M 31.78125 66.40625 
Q 24.171875 66.40625 20.328125 58.90625 
Q 16.5 51.421875 16.5 36.375 
Q 16.5 21.390625 20.328125 13.890625 
Q 24.171875 6.390625 31.78125 6.390625 
Q 39.453125 6.390625 43.28125 13.890625 
Q 47.125 21.390625 47.125 36.375 
Q 47.125 51.421875 43.28125 58.90625 
Q 39.453125 66.40625 31.78125 66.40625 
z
M 31.78125 74.21875 
Q 44.046875 74.21875 50.515625 64.515625 
Q 56.984375 54.828125 56.984375 36.375 
Q 56.984375 17.96875 50.515625 8.265625 
Q 44.046875 -1.421875 31.78125 -1.421875 
Q 19.53125 -1.421875 13.0625 8.265625 
Q 6.59375 17.96875 6.59375 36.375 
Q 6.59375 54.828125 13.0625 64.515625 
Q 19.53125 74.21875 31.78125 74.21875 
z
" id="DejaVuSans-48"/>
      </defs>
      <g transform="translate(191.435297 348.089347)scale(0.1 -0.1)">
       <use xlink:href="#DejaVuSans-49"/>
       <use x="63.623047" xlink:href="#DejaVuSans-57"/>
       <use x="127.246094" xlink:href="#DejaVuSans-53"/>
       <use x="190.869141" xlink:href="#DejaVuSans-48"/>
      </g>
     </g>
    </g>
    <g id="xtick_2">
     <g id="line2d_3">
      <path clip-path="url(#p7f0c99879b)" d="M 315.7057 333.490909 
L 315.7057 86.4 
" style="fill:none;stroke:#b0b0b0;stroke-linecap:square;stroke-width:0.8;"/>
     </g>
     <g id="line2d_4">
      <g>
       <use style="stroke:#000000;stroke-width:0.8;" x="315.7057" xlink:href="#m0354adeec1" y="333.490909"/>
      </g>
     </g>
     <g id="text_2">
      <!-- 1960 -->
      <defs>
       <path d="M 33.015625 40.375 
Q 26.375 40.375 22.484375 35.828125 
Q 18.609375 31.296875 18.609375 23.390625 
Q 18.609375 15.53125 22.484375 10.953125 
Q 26.375 6.390625 33.015625 6.390625 
Q 39.65625 6.390625 43.53125 10.953125 
Q 47.40625 15.53125 47.40625 23.390625 
Q 47.40625 31.296875 43.53125 35.828125 
Q 39.65625 40.375 33.015625 40.375 
z
M 52.59375 71.296875 
L 52.59375 62.3125 
Q 48.875 64.0625 45.09375 64.984375 
Q 41.3125 65.921875 37.59375 65.921875 
Q 27.828125 65.921875 22.671875 59.328125 
Q 17.53125 52.734375 16.796875 39.40625 
Q 19.671875 43.65625 24.015625 45.921875 
Q 28.375 48.1875 33.59375 48.1875 
Q 44.578125 48.1875 50.953125 41.515625 
Q 57.328125 34.859375 57.328125 23.390625 
Q 57.328125 12.15625 50.6875 5.359375 
Q 44.046875 -1.421875 33.015625 -1.421875 
Q 20.359375 -1.421875 13.671875 8.265625 
Q 6.984375 17.96875 6.984375 36.375 
Q 6.984375 53.65625 15.1875 63.9375 
Q 23.390625 74.21875 37.203125 74.21875 
Q 40.921875 74.21875 44.703125 73.484375 
Q 48.484375 72.75 52.59375 71.296875 
z
" id="DejaVuSans-54"/>
      </defs>
      <g transform="translate(302.9807 348.089347)scale(0.1 -0.1)">
       <use xlink:href="#DejaVuSans-49"/>
       <use x="63.623047" xlink:href="#DejaVuSans-57"/>
       <use x="127.246094" xlink:href="#DejaVuSans-54"/>
       <use x="190.869141" xlink:href="#DejaVuSans-48"/>
      </g>
     </g>
    </g>
    <g id="xtick_3">
     <g id="line2d_5">
      <path clip-path="url(#p7f0c99879b)" d="M 427.281647 333.490909 
L 427.281647 86.4 
" style="fill:none;stroke:#b0b0b0;stroke-linecap:square;stroke-width:0.8;"/>
     </g>
     <g id="line2d_6">
      <g>
       <use style="stroke:#000000;stroke-width:0.8;" x="427.281647" xlink:href="#m0354adeec1" y="333.490909"/>
      </g>
     </g>
     <g id="text_3">
      <!-- 1970 -->
      <defs>
       <path d="M 8.203125 72.90625 
L 55.078125 72.90625 
L 55.078125 68.703125 
L 28.609375 0 
L 18.3125 0 
L 43.21875 64.59375 
L 8.203125 64.59375 
z
" id="DejaVuSans-55"/>
      </defs>
      <g transform="translate(414.556647 348.089347)scale(0.1 -0.1)">
       <use xlink:href="#DejaVuSans-49"/>
       <use x="63.623047" xlink:href="#DejaVuSans-57"/>
       <use x="127.246094" xlink:href="#DejaVuSans-55"/>
       <use x="190.869141" xlink:href="#DejaVuSans-48"/>
      </g>
     </g>
    </g>
    <g id="xtick_4">
     <g id="line2d_7">
      <path clip-path="url(#p7f0c99879b)" d="M 538.82705 333.490909 
L 538.82705 86.4 
" style="fill:none;stroke:#b0b0b0;stroke-linecap:square;stroke-width:0.8;"/>
     </g>
     <g id="line2d_8">
      <g>
       <use style="stroke:#000000;stroke-width:0.8;" x="538.82705" xlink:href="#m0354adeec1" y="333.490909"/>
      </g>
     </g>
     <g id="text_4">
      <!-- 1980 -->
      <defs>
       <path d="M 31.78125 34.625 
Q 24.75 34.625 20.71875 30.859375 
Q 16.703125 27.09375 16.703125 20.515625 
Q 16.703125 13.921875 20.71875 10.15625 
Q 24.75 6.390625 31.78125 6.390625 
Q 38.8125 6.390625 42.859375 10.171875 
Q 46.921875 13.96875 46.921875 20.515625 
Q 46.921875 27.09375 42.890625 30.859375 
Q 38.875 34.625 31.78125 34.625 
z
M 21.921875 38.8125 
Q 15.578125 40.375 12.03125 44.71875 
Q 8.5 49.078125 8.5 55.328125 
Q 8.5 64.0625 14.71875 69.140625 
Q 20.953125 74.21875 31.78125 74.21875 
Q 42.671875 74.21875 48.875 69.140625 
Q 55.078125 64.0625 55.078125 55.328125 
Q 55.078125 49.078125 51.53125 44.71875 
Q 48 40.375 41.703125 38.8125 
Q 48.828125 37.15625 52.796875 32.3125 
Q 56.78125 27.484375 56.78125 20.515625 
Q 56.78125 9.90625 50.3125 4.234375 
Q 43.84375 -1.421875 31.78125 -1.421875 
Q 19.734375 -1.421875 13.25 4.234375 
Q 6.78125 9.90625 6.78125 20.515625 
Q 6.78125 27.484375 10.78125 32.3125 
Q 14.796875 37.15625 21.921875 38.8125 
z
M 18.3125 54.390625 
Q 18.3125 48.734375 21.84375 45.5625 
Q 25.390625 42.390625 31.78125 42.390625 
Q 38.140625 42.390625 41.71875 45.5625 
Q 45.3125 48.734375 45.3125 54.390625 
Q 45.3125 60.0625 41.71875 63.234375 
Q 38.140625 66.40625 31.78125 66.40625 
Q 25.390625 66.40625 21.84375 63.234375 
Q 18.3125 60.0625 18.3125 54.390625 
z
" id="DejaVuSans-56"/>
      </defs>
      <g transform="translate(526.10205 348.089347)scale(0.1 -0.1)">
       <use xlink:href="#DejaVuSans-49"/>
       <use x="63.623047" xlink:href="#DejaVuSans-57"/>
       <use x="127.246094" xlink:href="#DejaVuSans-56"/>
       <use x="190.869141" xlink:href="#DejaVuSans-48"/>
      </g>
     </g>
    </g>
    <g id="xtick_5">
     <g id="line2d_9">
      <path clip-path="url(#p7f0c99879b)" d="M 650.402997 333.490909 
L 650.402997 86.4 
" style="fill:none;stroke:#b0b0b0;stroke-linecap:square;stroke-width:0.8;"/>
     </g>
     <g id="line2d_10">
      <g>
       <use style="stroke:#000000;stroke-width:0.8;" x="650.402997" xlink:href="#m0354adeec1" y="333.490909"/>
      </g>
     </g>
     <g id="text_5">
      <!-- 1990 -->
      <g transform="translate(637.677997 348.089347)scale(0.1 -0.1)">
       <use xlink:href="#DejaVuSans-49"/>
       <use x="63.623047" xlink:href="#DejaVuSans-57"/>
       <use x="127.246094" xlink:href="#DejaVuSans-57"/>
       <use x="190.869141" xlink:href="#DejaVuSans-48"/>
      </g>
     </g>
    </g>
    <g id="xtick_6">
     <g id="line2d_11">
      <path clip-path="url(#p7f0c99879b)" d="M 761.9484 333.490909 
L 761.9484 86.4 
" style="fill:none;stroke:#b0b0b0;stroke-linecap:square;stroke-width:0.8;"/>
     </g>
     <g id="line2d_12">
      <g>
       <use style="stroke:#000000;stroke-width:0.8;" x="761.9484" xlink:href="#m0354adeec1" y="333.490909"/>
      </g>
     </g>
     <g id="text_6">
      <!-- 2000 -->
      <defs>
       <path d="M 19.1875 8.296875 
L 53.609375 8.296875 
L 53.609375 0 
L 7.328125 0 
L 7.328125 8.296875 
Q 12.9375 14.109375 22.625 23.890625 
Q 32.328125 33.6875 34.8125 36.53125 
Q 39.546875 41.84375 41.421875 45.53125 
Q 43.3125 49.21875 43.3125 52.78125 
Q 43.3125 58.59375 39.234375 62.25 
Q 35.15625 65.921875 28.609375 65.921875 
Q 23.96875 65.921875 18.8125 64.3125 
Q 13.671875 62.703125 7.8125 59.421875 
L 7.8125 69.390625 
Q 13.765625 71.78125 18.9375 73 
Q 24.125 74.21875 28.421875 74.21875 
Q 39.75 74.21875 46.484375 68.546875 
Q 53.21875 62.890625 53.21875 53.421875 
Q 53.21875 48.921875 51.53125 44.890625 
Q 49.859375 40.875 45.40625 35.40625 
Q 44.1875 33.984375 37.640625 27.21875 
Q 31.109375 20.453125 19.1875 8.296875 
z
" id="DejaVuSans-50"/>
      </defs>
      <g transform="translate(749.2234 348.089347)scale(0.1 -0.1)">
       <use xlink:href="#DejaVuSans-50"/>
       <use x="63.623047" xlink:href="#DejaVuSans-48"/>
       <use x="127.246094" xlink:href="#DejaVuSans-48"/>
       <use x="190.869141" xlink:href="#DejaVuSans-48"/>
      </g>
     </g>
    </g>
    <g id="xtick_7">
     <g id="line2d_13">
      <path clip-path="url(#p7f0c99879b)" d="M 873.524347 333.490909 
L 873.524347 86.4 
" style="fill:none;stroke:#b0b0b0;stroke-linecap:square;stroke-width:0.8;"/>
     </g>
     <g id="line2d_14">
      <g>
       <use style="stroke:#000000;stroke-width:0.8;" x="873.524347" xlink:href="#m0354adeec1" y="333.490909"/>
      </g>
     </g>
     <g id="text_7">
      <!-- 2010 -->
      <g transform="translate(860.799347 348.089347)scale(0.1 -0.1)">
       <use xlink:href="#DejaVuSans-50"/>
       <use x="63.623047" xlink:href="#DejaVuSans-48"/>
       <use x="127.246094" xlink:href="#DejaVuSans-49"/>
       <use x="190.869141" xlink:href="#DejaVuSans-48"/>
      </g>
     </g>
    </g>
    <g id="xtick_8">
     <g id="line2d_15">
      <path clip-path="url(#p7f0c99879b)" d="M 985.06975 333.490909 
L 985.06975 86.4 
" style="fill:none;stroke:#b0b0b0;stroke-linecap:square;stroke-width:0.8;"/>
     </g>
     <g id="line2d_16">
      <g>
       <use style="stroke:#000000;stroke-width:0.8;" x="985.06975" xlink:href="#m0354adeec1" y="333.490909"/>
      </g>
     </g>
     <g id="text_8">
      <!-- 2020 -->
      <g transform="translate(972.34475 348.089347)scale(0.1 -0.1)">
       <use xlink:href="#DejaVuSans-50"/>
       <use x="63.623047" xlink:href="#DejaVuSans-48"/>
       <use x="127.246094" xlink:href="#DejaVuSans-50"/>
       <use x="190.869141" xlink:href="#DejaVuSans-48"/>
      </g>
     </g>
    </g>
    <g id="text_9">
     <!-- Date -->
     <defs>
      <path d="M 19.671875 64.796875 
L 19.671875 8.109375 
L 31.59375 8.109375 
Q 46.6875 8.109375 53.6875 14.9375 
Q 60.6875 21.78125 60.6875 36.53125 
Q 60.6875 51.171875 53.6875 57.984375 
Q 46.6875 64.796875 31.59375 64.796875 
z
M 9.8125 72.90625 
L 30.078125 72.90625 
Q 51.265625 72.90625 61.171875 64.09375 
Q 71.09375 55.28125 71.09375 36.53125 
Q 71.09375 17.671875 61.125 8.828125 
Q 51.171875 0 30.078125 0 
L 9.8125 0 
z
" id="DejaVuSans-68"/>
      <path d="M 34.28125 27.484375 
Q 23.390625 27.484375 19.1875 25 
Q 14.984375 22.515625 14.984375 16.5 
Q 14.984375 11.71875 18.140625 8.90625 
Q 21.296875 6.109375 26.703125 6.109375 
Q 34.1875 6.109375 38.703125 11.40625 
Q 43.21875 16.703125 43.21875 25.484375 
L 43.21875 27.484375 
z
M 52.203125 31.203125 
L 52.203125 0 
L 43.21875 0 
L 43.21875 8.296875 
Q 40.140625 3.328125 35.546875 0.953125 
Q 30.953125 -1.421875 24.3125 -1.421875 
Q 15.921875 -1.421875 10.953125 3.296875 
Q 6 8.015625 6 15.921875 
Q 6 25.140625 12.171875 29.828125 
Q 18.359375 34.515625 30.609375 34.515625 
L 43.21875 34.515625 
L 43.21875 35.40625 
Q 43.21875 41.609375 39.140625 45 
Q 35.0625 48.390625 27.6875 48.390625 
Q 23 48.390625 18.546875 47.265625 
Q 14.109375 46.140625 10.015625 43.890625 
L 10.015625 52.203125 
Q 14.9375 54.109375 19.578125 55.046875 
Q 24.21875 56 28.609375 56 
Q 40.484375 56 46.34375 49.84375 
Q 52.203125 43.703125 52.203125 31.203125 
z
" id="DejaVuSans-97"/>
      <path d="M 18.3125 70.21875 
L 18.3125 54.6875 
L 36.8125 54.6875 
L 36.8125 47.703125 
L 18.3125 47.703125 
L 18.3125 18.015625 
Q 18.3125 11.328125 20.140625 9.421875 
Q 21.96875 7.515625 27.59375 7.515625 
L 36.8125 7.515625 
L 36.8125 0 
L 27.59375 0 
Q 17.1875 0 13.234375 3.875 
Q 9.28125 7.765625 9.28125 18.015625 
L 9.28125 47.703125 
L 2.6875 47.703125 
L 2.6875 54.6875 
L 9.28125 54.6875 
L 9.28125 70.21875 
z
" id="DejaVuSans-116"/>
      <path d="M 56.203125 29.59375 
L 56.203125 25.203125 
L 14.890625 25.203125 
Q 15.484375 15.921875 20.484375 11.0625 
Q 25.484375 6.203125 34.421875 6.203125 
Q 39.59375 6.203125 44.453125 7.46875 
Q 49.3125 8.734375 54.109375 11.28125 
L 54.109375 2.78125 
Q 49.265625 0.734375 44.1875 -0.34375 
Q 39.109375 -1.421875 33.890625 -1.421875 
Q 20.796875 -1.421875 13.15625 6.1875 
Q 5.515625 13.8125 5.515625 26.8125 
Q 5.515625 40.234375 12.765625 48.109375 
Q 20.015625 56 32.328125 56 
Q 43.359375 56 49.78125 48.890625 
Q 56.203125 41.796875 56.203125 29.59375 
z
M 47.21875 32.234375 
Q 47.125 39.59375 43.09375 43.984375 
Q 39.0625 48.390625 32.421875 48.390625 
Q 24.90625 48.390625 20.390625 44.140625 
Q 15.875 39.890625 15.1875 32.171875 
z
" id="DejaVuSans-101"/>
     </defs>
     <g transform="translate(578.449219 361.767472)scale(0.1 -0.1)">
      <use xlink:href="#DejaVuSans-68"/>
      <use x="77.001953" xlink:href="#DejaVuSans-97"/>
      <use x="138.28125" xlink:href="#DejaVuSans-116"/>
      <use x="177.490234" xlink:href="#DejaVuSans-101"/>
     </g>
    </g>
   </g>
   <g id="matplotlib.axis_2">
    <g id="ytick_1">
     <g id="line2d_17">
      <path clip-path="url(#p7f0c99879b)" d="M 144 286.178055 
L 1036.8 286.178055 
" style="fill:none;stroke:#b0b0b0;stroke-linecap:square;stroke-width:0.8;"/>
     </g>
     <g id="line2d_18">
      <defs>
       <path d="M 0 0 
L -3.5 0 
" id="mbfd2374c57" style="stroke:#000000;stroke-width:0.8;"/>
      </defs>
      <g>
       <use style="stroke:#000000;stroke-width:0.8;" x="144" xlink:href="#mbfd2374c57" y="286.178055"/>
      </g>
     </g>
     <g id="text_10">
      <!-- 8.0 -->
      <defs>
       <path d="M 10.6875 12.40625 
L 21 12.40625 
L 21 0 
L 10.6875 0 
z
" id="DejaVuSans-46"/>
      </defs>
      <g transform="translate(121.096875 289.977274)scale(0.1 -0.1)">
       <use xlink:href="#DejaVuSans-56"/>
       <use x="63.623047" xlink:href="#DejaVuSans-46"/>
       <use x="95.410156" xlink:href="#DejaVuSans-48"/>
      </g>
     </g>
    </g>
    <g id="ytick_2">
     <g id="line2d_19">
      <path clip-path="url(#p7f0c99879b)" d="M 144 235.642145 
L 1036.8 235.642145 
" style="fill:none;stroke:#b0b0b0;stroke-linecap:square;stroke-width:0.8;"/>
     </g>
     <g id="line2d_20">
      <g>
       <use style="stroke:#000000;stroke-width:0.8;" x="144" xlink:href="#mbfd2374c57" y="235.642145"/>
      </g>
     </g>
     <g id="text_11">
      <!-- 8.5 -->
      <g transform="translate(121.096875 239.441363)scale(0.1 -0.1)">
       <use xlink:href="#DejaVuSans-56"/>
       <use x="63.623047" xlink:href="#DejaVuSans-46"/>
       <use x="95.410156" xlink:href="#DejaVuSans-53"/>
      </g>
     </g>
    </g>
    <g id="ytick_3">
     <g id="line2d_21">
      <path clip-path="url(#p7f0c99879b)" d="M 144 185.106234 
L 1036.8 185.106234 
" style="fill:none;stroke:#b0b0b0;stroke-linecap:square;stroke-width:0.8;"/>
     </g>
     <g id="line2d_22">
      <g>
       <use style="stroke:#000000;stroke-width:0.8;" x="144" xlink:href="#mbfd2374c57" y="185.106234"/>
      </g>
     </g>
     <g id="text_12">
      <!-- 9.0 -->
      <g transform="translate(121.096875 188.905453)scale(0.1 -0.1)">
       <use xlink:href="#DejaVuSans-57"/>
       <use x="63.623047" xlink:href="#DejaVuSans-46"/>
       <use x="95.410156" xlink:href="#DejaVuSans-48"/>
      </g>
     </g>
    </g>
    <g id="ytick_4">
     <g id="line2d_23">
      <path clip-path="url(#p7f0c99879b)" d="M 144 134.570324 
L 1036.8 134.570324 
" style="fill:none;stroke:#b0b0b0;stroke-linecap:square;stroke-width:0.8;"/>
     </g>
     <g id="line2d_24">
      <g>
       <use style="stroke:#000000;stroke-width:0.8;" x="144" xlink:href="#mbfd2374c57" y="134.570324"/>
      </g>
     </g>
     <g id="text_13">
      <!-- 9.5 -->
      <g transform="translate(121.096875 138.369542)scale(0.1 -0.1)">
       <use xlink:href="#DejaVuSans-57"/>
       <use x="63.623047" xlink:href="#DejaVuSans-46"/>
       <use x="95.410156" xlink:href="#DejaVuSans-53"/>
      </g>
     </g>
    </g>
    <g id="text_14">
     <!-- Log of real GDP -->
     <defs>
      <path d="M 9.8125 72.90625 
L 19.671875 72.90625 
L 19.671875 8.296875 
L 55.171875 8.296875 
L 55.171875 0 
L 9.8125 0 
z
" id="DejaVuSans-76"/>
      <path d="M 30.609375 48.390625 
Q 23.390625 48.390625 19.1875 42.75 
Q 14.984375 37.109375 14.984375 27.296875 
Q 14.984375 17.484375 19.15625 11.84375 
Q 23.34375 6.203125 30.609375 6.203125 
Q 37.796875 6.203125 41.984375 11.859375 
Q 46.1875 17.53125 46.1875 27.296875 
Q 46.1875 37.015625 41.984375 42.703125 
Q 37.796875 48.390625 30.609375 48.390625 
z
M 30.609375 56 
Q 42.328125 56 49.015625 48.375 
Q 55.71875 40.765625 55.71875 27.296875 
Q 55.71875 13.875 49.015625 6.21875 
Q 42.328125 -1.421875 30.609375 -1.421875 
Q 18.84375 -1.421875 12.171875 6.21875 
Q 5.515625 13.875 5.515625 27.296875 
Q 5.515625 40.765625 12.171875 48.375 
Q 18.84375 56 30.609375 56 
z
" id="DejaVuSans-111"/>
      <path d="M 45.40625 27.984375 
Q 45.40625 37.75 41.375 43.109375 
Q 37.359375 48.484375 30.078125 48.484375 
Q 22.859375 48.484375 18.828125 43.109375 
Q 14.796875 37.75 14.796875 27.984375 
Q 14.796875 18.265625 18.828125 12.890625 
Q 22.859375 7.515625 30.078125 7.515625 
Q 37.359375 7.515625 41.375 12.890625 
Q 45.40625 18.265625 45.40625 27.984375 
z
M 54.390625 6.78125 
Q 54.390625 -7.171875 48.1875 -13.984375 
Q 42 -20.796875 29.203125 -20.796875 
Q 24.46875 -20.796875 20.265625 -20.09375 
Q 16.0625 -19.390625 12.109375 -17.921875 
L 12.109375 -9.1875 
Q 16.0625 -11.328125 19.921875 -12.34375 
Q 23.78125 -13.375 27.78125 -13.375 
Q 36.625 -13.375 41.015625 -8.765625 
Q 45.40625 -4.15625 45.40625 5.171875 
L 45.40625 9.625 
Q 42.625 4.78125 38.28125 2.390625 
Q 33.9375 0 27.875 0 
Q 17.828125 0 11.671875 7.65625 
Q 5.515625 15.328125 5.515625 27.984375 
Q 5.515625 40.671875 11.671875 48.328125 
Q 17.828125 56 27.875 56 
Q 33.9375 56 38.28125 53.609375 
Q 42.625 51.21875 45.40625 46.390625 
L 45.40625 54.6875 
L 54.390625 54.6875 
z
" id="DejaVuSans-103"/>
      <path id="DejaVuSans-32"/>
      <path d="M 37.109375 75.984375 
L 37.109375 68.5 
L 28.515625 68.5 
Q 23.6875 68.5 21.796875 66.546875 
Q 19.921875 64.59375 19.921875 59.515625 
L 19.921875 54.6875 
L 34.71875 54.6875 
L 34.71875 47.703125 
L 19.921875 47.703125 
L 19.921875 0 
L 10.890625 0 
L 10.890625 47.703125 
L 2.296875 47.703125 
L 2.296875 54.6875 
L 10.890625 54.6875 
L 10.890625 58.5 
Q 10.890625 67.625 15.140625 71.796875 
Q 19.390625 75.984375 28.609375 75.984375 
z
" id="DejaVuSans-102"/>
      <path d="M 41.109375 46.296875 
Q 39.59375 47.171875 37.8125 47.578125 
Q 36.03125 48 33.890625 48 
Q 26.265625 48 22.1875 43.046875 
Q 18.109375 38.09375 18.109375 28.8125 
L 18.109375 0 
L 9.078125 0 
L 9.078125 54.6875 
L 18.109375 54.6875 
L 18.109375 46.1875 
Q 20.953125 51.171875 25.484375 53.578125 
Q 30.03125 56 36.53125 56 
Q 37.453125 56 38.578125 55.875 
Q 39.703125 55.765625 41.0625 55.515625 
z
" id="DejaVuSans-114"/>
      <path d="M 9.421875 75.984375 
L 18.40625 75.984375 
L 18.40625 0 
L 9.421875 0 
z
" id="DejaVuSans-108"/>
      <path d="M 59.515625 10.40625 
L 59.515625 29.984375 
L 43.40625 29.984375 
L 43.40625 38.09375 
L 69.28125 38.09375 
L 69.28125 6.78125 
Q 63.578125 2.734375 56.6875 0.65625 
Q 49.8125 -1.421875 42 -1.421875 
Q 24.90625 -1.421875 15.25 8.5625 
Q 5.609375 18.5625 5.609375 36.375 
Q 5.609375 54.25 15.25 64.234375 
Q 24.90625 74.21875 42 74.21875 
Q 49.125 74.21875 55.546875 72.453125 
Q 61.96875 70.703125 67.390625 67.28125 
L 67.390625 56.78125 
Q 61.921875 61.421875 55.765625 63.765625 
Q 49.609375 66.109375 42.828125 66.109375 
Q 29.4375 66.109375 22.71875 58.640625 
Q 16.015625 51.171875 16.015625 36.375 
Q 16.015625 21.625 22.71875 14.15625 
Q 29.4375 6.6875 42.828125 6.6875 
Q 48.046875 6.6875 52.140625 7.59375 
Q 56.25 8.5 59.515625 10.40625 
z
" id="DejaVuSans-71"/>
      <path d="M 19.671875 64.796875 
L 19.671875 37.40625 
L 32.078125 37.40625 
Q 38.96875 37.40625 42.71875 40.96875 
Q 46.484375 44.53125 46.484375 51.125 
Q 46.484375 57.671875 42.71875 61.234375 
Q 38.96875 64.796875 32.078125 64.796875 
z
M 9.8125 72.90625 
L 32.078125 72.90625 
Q 44.34375 72.90625 50.609375 67.359375 
Q 56.890625 61.8125 56.890625 51.125 
Q 56.890625 40.328125 50.609375 34.8125 
Q 44.34375 29.296875 32.078125 29.296875 
L 19.671875 29.296875 
L 19.671875 0 
L 9.8125 0 
z
" id="DejaVuSans-80"/>
     </defs>
     <g transform="translate(115.017187 248.675923)rotate(-90)scale(0.1 -0.1)">
      <use xlink:href="#DejaVuSans-76"/>
      <use x="53.962891" xlink:href="#DejaVuSans-111"/>
      <use x="115.144531" xlink:href="#DejaVuSans-103"/>
      <use x="178.621094" xlink:href="#DejaVuSans-32"/>
      <use x="210.408203" xlink:href="#DejaVuSans-111"/>
      <use x="271.589844" xlink:href="#DejaVuSans-102"/>
      <use x="306.794922" xlink:href="#DejaVuSans-32"/>
      <use x="338.582031" xlink:href="#DejaVuSans-114"/>
      <use x="377.445312" xlink:href="#DejaVuSans-101"/>
      <use x="438.96875" xlink:href="#DejaVuSans-97"/>
      <use x="500.248047" xlink:href="#DejaVuSans-108"/>
      <use x="528.03125" xlink:href="#DejaVuSans-32"/>
      <use x="559.818359" xlink:href="#DejaVuSans-71"/>
      <use x="637.308594" xlink:href="#DejaVuSans-68"/>
      <use x="714.310547" xlink:href="#DejaVuSans-80"/>
     </g>
    </g>
   </g>
   <g id="line2d_25">
    <path clip-path="url(#p7f0c99879b)" d="M 184.581818 322.259504 
L 187.36129 320.604774 
L 190.171306 320.027389 
L 192.981321 319.914512 
L 195.73025 321.316918 
L 198.509722 321.662259 
L 201.319737 320.624128 
L 204.129753 321.475978 
L 206.878681 317.579804 
L 209.658153 314.543351 
L 212.468169 310.711121 
L 215.278185 308.79413 
L 218.027113 307.430647 
L 220.806585 305.69434 
L 223.616601 303.632442 
L 226.426616 303.410086 
L 229.206088 302.335814 
L 231.98556 302.118353 
L 234.795576 301.391365 
L 237.605591 298.12531 
L 240.35452 296.263781 
L 243.133992 295.485515 
L 245.944007 296.055846 
L 248.754023 297.597751 
L 251.502951 298.082045 
L 254.282423 297.971946 
L 257.092439 296.836875 
L 259.902455 294.878319 
L 262.651383 292.031916 
L 265.430855 290.400533 
L 268.240871 289.044715 
L 271.050886 288.43977 
L 273.830358 288.833103 
L 276.60983 288.001345 
L 279.419846 288.092181 
L 282.229861 286.442153 
L 284.97879 285.796961 
L 287.758262 286.018654 
L 290.568277 285.033089 
L 293.378293 286.084213 
L 296.127221 288.742538 
L 298.906693 288.080295 
L 304.526725 283.43114 
L 307.275653 281.507668 
L 310.055125 279.252412 
L 312.865141 279.180474 
L 315.675156 278.89279 
L 318.454628 276.646551 
L 321.2341 277.193195 
L 324.044116 276.699882 
L 326.854132 278.005468 
L 329.60306 277.325496 
L 332.382532 275.624223 
L 340.751491 269.952624 
L 343.530963 269.043369 
L 346.340979 267.809259 
L 349.150995 267.477419 
L 354.679395 265.252257 
L 357.489411 263.05434 
L 360.299426 262.39388 
L 363.078898 260.285156 
L 365.85837 259.190729 
L 368.668386 257.623891 
L 371.478402 257.312168 
L 374.22733 254.895588 
L 377.006802 253.626775 
L 382.626833 249.101977 
L 385.375761 246.671122 
L 388.155233 246.326432 
L 396.524193 243.757133 
L 399.303665 243.695224 
L 402.113681 242.743446 
L 404.923696 241.984203 
L 407.703168 239.943589 
L 410.48264 238.268825 
L 413.292656 237.488566 
L 416.102672 237.091827 
L 418.8516 235.522196 
L 421.631072 235.215396 
L 424.441088 234.55 
L 427.251103 235.044118 
L 430.000031 235.194306 
L 432.779503 235.050966 
L 435.589519 234.123779 
L 438.399535 235.212754 
L 441.148463 232.504269 
L 443.927935 231.958832 
L 446.737951 231.130431 
L 449.547966 230.892405 
L 452.327438 229.050624 
L 455.10691 226.782184 
L 457.916926 225.83215 
L 460.726942 224.153755 
L 463.47587 221.682867 
L 466.255342 220.588493 
L 469.065358 221.121435 
L 471.875373 220.166561 
L 474.624301 221.039298 
L 477.403773 220.799358 
L 480.213789 221.759165 
L 483.023805 222.15223 
L 485.772733 223.390128 
L 488.552205 222.670493 
L 491.362221 220.955129 
L 494.172236 219.60327 
L 496.951708 217.355586 
L 499.73118 216.616733 
L 502.541196 216.063648 
L 505.351212 215.333675 
L 508.10014 214.146518 
L 510.879612 212.200428 
L 513.689628 210.392996 
L 516.499643 210.390785 
L 519.248572 210.0687 
L 522.028044 206.236604 
L 524.838059 205.22538 
L 527.648075 203.875876 
L 533.176475 203.586311 
L 535.986491 202.83825 
L 541.575978 202.268425 
L 544.35545 204.372741 
L 547.165466 204.492935 
L 549.975482 202.625381 
L 552.72441 200.664095 
L 555.503882 201.415905 
L 558.313898 200.212735 
L 561.123913 201.320002 
L 563.872842 202.902518 
L 566.652314 202.442481 
L 569.462329 202.829614 
L 572.272345 202.789252 
L 575.021273 201.465973 
L 577.800745 199.191756 
L 586.200248 193.147646 
L 588.97972 191.416251 
L 591.789736 190.446521 
L 594.599752 189.620246 
L 600.128152 187.759491 
L 602.938168 186.227665 
L 605.748183 185.479185 
L 608.497112 184.540052 
L 611.276584 184.085863 
L 614.086599 183.123172 
L 616.896615 182.581792 
L 619.645543 181.831426 
L 622.425015 180.746805 
L 625.235031 179.873676 
L 628.045046 178.152951 
L 630.824518 177.632131 
L 633.60399 176.31283 
L 636.414006 175.722349 
L 639.224022 174.384465 
L 641.97295 173.362154 
L 647.562438 171.847572 
L 650.372453 171.648609 
L 653.121382 170.550098 
L 655.900854 170.183964 
L 658.710869 170.11675 
L 661.520885 171.041101 
L 664.269813 171.515069 
L 667.049285 170.730049 
L 669.859301 170.220623 
L 672.669316 169.869001 
L 678.22826 167.576227 
L 683.848292 165.533382 
L 686.59722 165.364329 
L 692.186708 164.296092 
L 694.996723 162.930665 
L 697.745652 161.954776 
L 700.525124 160.594403 
L 703.335139 160.005343 
L 706.145155 158.854121 
L 711.673555 158.195108 
L 714.483571 157.338949 
L 720.073058 155.900816 
L 722.85253 154.228995 
L 725.662546 153.326432 
L 728.472562 152.282332 
L 731.22149 151.631945 
L 734.000962 149.965937 
L 736.810978 148.709523 
L 739.620993 147.845208 
L 745.149394 145.908605 
L 747.959409 144.650476 
L 750.769425 143.030331 
L 753.518353 142.078213 
L 756.297825 141.303785 
L 759.107841 139.988676 
L 761.917856 138.285309 
L 764.697328 137.920331 
L 767.4768 136.086281 
L 770.286816 135.951384 
L 773.096832 135.323771 
L 775.84576 135.612417 
L 778.625232 135.023316 
L 781.435248 135.443676 
L 784.245263 135.168759 
L 786.994192 134.288714 
L 789.773664 133.678336 
L 792.583679 133.229996 
L 795.393695 133.073635 
L 798.142623 132.514471 
L 800.922095 131.64871 
L 803.732111 129.94671 
L 806.542126 128.792848 
L 809.321598 128.254814 
L 812.10107 127.48749 
L 817.721102 125.529144 
L 820.47003 124.416463 
L 823.249502 123.951028 
L 826.059518 123.054132 
L 828.869533 122.417907 
L 831.618462 121.082227 
L 837.207949 120.690128 
L 840.017965 119.832779 
L 842.766893 119.595042 
L 851.166397 117.857576 
L 853.945868 118.440111 
L 856.72534 117.919532 
L 859.535356 118.468177 
L 862.345372 120.679188 
L 865.0943 121.820334 
L 867.873772 121.965972 
L 870.683788 121.598627 
L 873.493803 120.494523 
L 876.242732 120.106365 
L 879.022204 119.178724 
L 881.832219 118.436345 
L 884.642235 117.930331 
L 887.391163 118.173642 
L 890.170635 117.453577 
L 892.980651 117.481657 
L 895.790667 116.316686 
L 898.570139 115.528384 
L 901.349611 115.094504 
L 906.969642 114.843173 
L 909.71857 113.951946 
L 912.498042 113.827303 
L 918.118073 112.234975 
L 920.867002 112.521115 
L 923.646474 111.162103 
L 926.456489 109.935557 
L 929.266505 109.368326 
L 932.015433 108.413521 
L 934.794905 107.731959 
L 937.604921 107.366131 
L 940.414937 107.20418 
L 943.194409 106.633311 
L 945.973881 106.31854 
L 951.593912 105.135751 
L 954.34284 104.56563 
L 957.122312 104.135028 
L 959.932328 103.401055 
L 965.491272 101.502415 
L 968.270744 100.82887 
L 971.080759 100.299434 
L 973.890775 99.968137 
L 976.639703 99.237887 
L 979.419175 98.86389 
L 985.039207 97.631405 
L 987.818679 98.915718 
L 990.598151 108.432452 
L 993.408166 101.142861 
L 996.218182 100.072933 
L 996.218182 100.072933 
" style="fill:none;stroke:#1f77b4;stroke-linecap:square;stroke-width:1.5;"/>
   </g>
   <g id="patch_3">
    <path d="M 144 333.490909 
L 144 86.4 
" style="fill:none;stroke:#000000;stroke-linecap:square;stroke-linejoin:miter;stroke-width:0.8;"/>
   </g>
   <g id="patch_4">
    <path d="M 1036.8 333.490909 
L 1036.8 86.4 
" style="fill:none;stroke:#000000;stroke-linecap:square;stroke-linejoin:miter;stroke-width:0.8;"/>
   </g>
   <g id="patch_5">
    <path d="M 144 333.490909 
L 1036.8 333.490909 
" style="fill:none;stroke:#000000;stroke-linecap:square;stroke-linejoin:miter;stroke-width:0.8;"/>
   </g>
   <g id="patch_6">
    <path d="M 144 86.4 
L 1036.8 86.4 
" style="fill:none;stroke:#000000;stroke-linecap:square;stroke-linejoin:miter;stroke-width:0.8;"/>
   </g>
  </g>
  <g id="axes_2">
   <g id="patch_7">
    <path d="M 144 630 
L 1036.8 630 
L 1036.8 382.909091 
L 144 382.909091 
z
" style="fill:#ffffff;"/>
   </g>
   <g id="matplotlib.axis_3">
    <g id="xtick_9">
     <g id="line2d_26">
      <path clip-path="url(#p7e8bfda434)" d="M 204.160297 630 
L 204.160297 382.909091 
" style="fill:none;stroke:#b0b0b0;stroke-linecap:square;stroke-width:0.8;"/>
     </g>
     <g id="line2d_27">
      <g>
       <use style="stroke:#000000;stroke-width:0.8;" x="204.160297" xlink:href="#m0354adeec1" y="630"/>
      </g>
     </g>
     <g id="text_15">
      <!-- 1950 -->
      <g transform="translate(191.435297 644.598437)scale(0.1 -0.1)">
       <use xlink:href="#DejaVuSans-49"/>
       <use x="63.623047" xlink:href="#DejaVuSans-57"/>
       <use x="127.246094" xlink:href="#DejaVuSans-53"/>
       <use x="190.869141" xlink:href="#DejaVuSans-48"/>
      </g>
     </g>
    </g>
    <g id="xtick_10">
     <g id="line2d_28">
      <path clip-path="url(#p7e8bfda434)" d="M 315.7057 630 
L 315.7057 382.909091 
" style="fill:none;stroke:#b0b0b0;stroke-linecap:square;stroke-width:0.8;"/>
     </g>
     <g id="line2d_29">
      <g>
       <use style="stroke:#000000;stroke-width:0.8;" x="315.7057" xlink:href="#m0354adeec1" y="630"/>
      </g>
     </g>
     <g id="text_16">
      <!-- 1960 -->
      <g transform="translate(302.9807 644.598437)scale(0.1 -0.1)">
       <use xlink:href="#DejaVuSans-49"/>
       <use x="63.623047" xlink:href="#DejaVuSans-57"/>
       <use x="127.246094" xlink:href="#DejaVuSans-54"/>
       <use x="190.869141" xlink:href="#DejaVuSans-48"/>
      </g>
     </g>
    </g>
    <g id="xtick_11">
     <g id="line2d_30">
      <path clip-path="url(#p7e8bfda434)" d="M 427.281647 630 
L 427.281647 382.909091 
" style="fill:none;stroke:#b0b0b0;stroke-linecap:square;stroke-width:0.8;"/>
     </g>
     <g id="line2d_31">
      <g>
       <use style="stroke:#000000;stroke-width:0.8;" x="427.281647" xlink:href="#m0354adeec1" y="630"/>
      </g>
     </g>
     <g id="text_17">
      <!-- 1970 -->
      <g transform="translate(414.556647 644.598437)scale(0.1 -0.1)">
       <use xlink:href="#DejaVuSans-49"/>
       <use x="63.623047" xlink:href="#DejaVuSans-57"/>
       <use x="127.246094" xlink:href="#DejaVuSans-55"/>
       <use x="190.869141" xlink:href="#DejaVuSans-48"/>
      </g>
     </g>
    </g>
    <g id="xtick_12">
     <g id="line2d_32">
      <path clip-path="url(#p7e8bfda434)" d="M 538.82705 630 
L 538.82705 382.909091 
" style="fill:none;stroke:#b0b0b0;stroke-linecap:square;stroke-width:0.8;"/>
     </g>
     <g id="line2d_33">
      <g>
       <use style="stroke:#000000;stroke-width:0.8;" x="538.82705" xlink:href="#m0354adeec1" y="630"/>
      </g>
     </g>
     <g id="text_18">
      <!-- 1980 -->
      <g transform="translate(526.10205 644.598437)scale(0.1 -0.1)">
       <use xlink:href="#DejaVuSans-49"/>
       <use x="63.623047" xlink:href="#DejaVuSans-57"/>
       <use x="127.246094" xlink:href="#DejaVuSans-56"/>
       <use x="190.869141" xlink:href="#DejaVuSans-48"/>
      </g>
     </g>
    </g>
    <g id="xtick_13">
     <g id="line2d_34">
      <path clip-path="url(#p7e8bfda434)" d="M 650.402997 630 
L 650.402997 382.909091 
" style="fill:none;stroke:#b0b0b0;stroke-linecap:square;stroke-width:0.8;"/>
     </g>
     <g id="line2d_35">
      <g>
       <use style="stroke:#000000;stroke-width:0.8;" x="650.402997" xlink:href="#m0354adeec1" y="630"/>
      </g>
     </g>
     <g id="text_19">
      <!-- 1990 -->
      <g transform="translate(637.677997 644.598437)scale(0.1 -0.1)">
       <use xlink:href="#DejaVuSans-49"/>
       <use x="63.623047" xlink:href="#DejaVuSans-57"/>
       <use x="127.246094" xlink:href="#DejaVuSans-57"/>
       <use x="190.869141" xlink:href="#DejaVuSans-48"/>
      </g>
     </g>
    </g>
    <g id="xtick_14">
     <g id="line2d_36">
      <path clip-path="url(#p7e8bfda434)" d="M 761.9484 630 
L 761.9484 382.909091 
" style="fill:none;stroke:#b0b0b0;stroke-linecap:square;stroke-width:0.8;"/>
     </g>
     <g id="line2d_37">
      <g>
       <use style="stroke:#000000;stroke-width:0.8;" x="761.9484" xlink:href="#m0354adeec1" y="630"/>
      </g>
     </g>
     <g id="text_20">
      <!-- 2000 -->
      <g transform="translate(749.2234 644.598437)scale(0.1 -0.1)">
       <use xlink:href="#DejaVuSans-50"/>
       <use x="63.623047" xlink:href="#DejaVuSans-48"/>
       <use x="127.246094" xlink:href="#DejaVuSans-48"/>
       <use x="190.869141" xlink:href="#DejaVuSans-48"/>
      </g>
     </g>
    </g>
    <g id="xtick_15">
     <g id="line2d_38">
      <path clip-path="url(#p7e8bfda434)" d="M 873.524347 630 
L 873.524347 382.909091 
" style="fill:none;stroke:#b0b0b0;stroke-linecap:square;stroke-width:0.8;"/>
     </g>
     <g id="line2d_39">
      <g>
       <use style="stroke:#000000;stroke-width:0.8;" x="873.524347" xlink:href="#m0354adeec1" y="630"/>
      </g>
     </g>
     <g id="text_21">
      <!-- 2010 -->
      <g transform="translate(860.799347 644.598437)scale(0.1 -0.1)">
       <use xlink:href="#DejaVuSans-50"/>
       <use x="63.623047" xlink:href="#DejaVuSans-48"/>
       <use x="127.246094" xlink:href="#DejaVuSans-49"/>
       <use x="190.869141" xlink:href="#DejaVuSans-48"/>
      </g>
     </g>
    </g>
    <g id="xtick_16">
     <g id="line2d_40">
      <path clip-path="url(#p7e8bfda434)" d="M 985.06975 630 
L 985.06975 382.909091 
" style="fill:none;stroke:#b0b0b0;stroke-linecap:square;stroke-width:0.8;"/>
     </g>
     <g id="line2d_41">
      <g>
       <use style="stroke:#000000;stroke-width:0.8;" x="985.06975" xlink:href="#m0354adeec1" y="630"/>
      </g>
     </g>
     <g id="text_22">
      <!-- 2020 -->
      <g transform="translate(972.34475 644.598437)scale(0.1 -0.1)">
       <use xlink:href="#DejaVuSans-50"/>
       <use x="63.623047" xlink:href="#DejaVuSans-48"/>
       <use x="127.246094" xlink:href="#DejaVuSans-50"/>
       <use x="190.869141" xlink:href="#DejaVuSans-48"/>
      </g>
     </g>
    </g>
    <g id="text_23">
     <!-- Date -->
     <g transform="translate(578.449219 658.276562)scale(0.1 -0.1)">
      <use xlink:href="#DejaVuSans-68"/>
      <use x="77.001953" xlink:href="#DejaVuSans-97"/>
      <use x="138.28125" xlink:href="#DejaVuSans-116"/>
      <use x="177.490234" xlink:href="#DejaVuSans-101"/>
     </g>
    </g>
   </g>
   <g id="matplotlib.axis_4">
    <g id="ytick_5">
     <g id="line2d_42">
      <path clip-path="url(#p7e8bfda434)" d="M 144 588.105077 
L 1036.8 588.105077 
" style="fill:none;stroke:#b0b0b0;stroke-linecap:square;stroke-width:0.8;"/>
     </g>
     <g id="line2d_43">
      <g>
       <use style="stroke:#000000;stroke-width:0.8;" x="144" xlink:href="#mbfd2374c57" y="588.105077"/>
      </g>
     </g>
     <g id="text_24">
      <!-- 4 -->
      <defs>
       <path d="M 37.796875 64.3125 
L 12.890625 25.390625 
L 37.796875 25.390625 
z
M 35.203125 72.90625 
L 47.609375 72.90625 
L 47.609375 25.390625 
L 58.015625 25.390625 
L 58.015625 17.1875 
L 47.609375 17.1875 
L 47.609375 0 
L 37.796875 0 
L 37.796875 17.1875 
L 4.890625 17.1875 
L 4.890625 26.703125 
z
" id="DejaVuSans-52"/>
      </defs>
      <g transform="translate(130.6375 591.904295)scale(0.1 -0.1)">
       <use xlink:href="#DejaVuSans-52"/>
      </g>
     </g>
    </g>
    <g id="ytick_6">
     <g id="line2d_44">
      <path clip-path="url(#p7e8bfda434)" d="M 144 545.318772 
L 1036.8 545.318772 
" style="fill:none;stroke:#b0b0b0;stroke-linecap:square;stroke-width:0.8;"/>
     </g>
     <g id="line2d_45">
      <g>
       <use style="stroke:#000000;stroke-width:0.8;" x="144" xlink:href="#mbfd2374c57" y="545.318772"/>
      </g>
     </g>
     <g id="text_25">
      <!-- 6 -->
      <g transform="translate(130.6375 549.117991)scale(0.1 -0.1)">
       <use xlink:href="#DejaVuSans-54"/>
      </g>
     </g>
    </g>
    <g id="ytick_7">
     <g id="line2d_46">
      <path clip-path="url(#p7e8bfda434)" d="M 144 502.532468 
L 1036.8 502.532468 
" style="fill:none;stroke:#b0b0b0;stroke-linecap:square;stroke-width:0.8;"/>
     </g>
     <g id="line2d_47">
      <g>
       <use style="stroke:#000000;stroke-width:0.8;" x="144" xlink:href="#mbfd2374c57" y="502.532468"/>
      </g>
     </g>
     <g id="text_26">
      <!-- 8 -->
      <g transform="translate(130.6375 506.331686)scale(0.1 -0.1)">
       <use xlink:href="#DejaVuSans-56"/>
      </g>
     </g>
    </g>
    <g id="ytick_8">
     <g id="line2d_48">
      <path clip-path="url(#p7e8bfda434)" d="M 144 459.746163 
L 1036.8 459.746163 
" style="fill:none;stroke:#b0b0b0;stroke-linecap:square;stroke-width:0.8;"/>
     </g>
     <g id="line2d_49">
      <g>
       <use style="stroke:#000000;stroke-width:0.8;" x="144" xlink:href="#mbfd2374c57" y="459.746163"/>
      </g>
     </g>
     <g id="text_27">
      <!-- 10 -->
      <g transform="translate(124.275 463.545382)scale(0.1 -0.1)">
       <use xlink:href="#DejaVuSans-49"/>
       <use x="63.623047" xlink:href="#DejaVuSans-48"/>
      </g>
     </g>
    </g>
    <g id="ytick_9">
     <g id="line2d_50">
      <path clip-path="url(#p7e8bfda434)" d="M 144 416.959858 
L 1036.8 416.959858 
" style="fill:none;stroke:#b0b0b0;stroke-linecap:square;stroke-width:0.8;"/>
     </g>
     <g id="line2d_51">
      <g>
       <use style="stroke:#000000;stroke-width:0.8;" x="144" xlink:href="#mbfd2374c57" y="416.959858"/>
      </g>
     </g>
     <g id="text_28">
      <!-- 12 -->
      <g transform="translate(124.275 420.759077)scale(0.1 -0.1)">
       <use xlink:href="#DejaVuSans-49"/>
       <use x="63.623047" xlink:href="#DejaVuSans-50"/>
      </g>
     </g>
    </g>
    <g id="text_29">
     <!-- Unemployment rate -->
     <defs>
      <path d="M 8.6875 72.90625 
L 18.609375 72.90625 
L 18.609375 28.609375 
Q 18.609375 16.890625 22.84375 11.734375 
Q 27.09375 6.59375 36.625 6.59375 
Q 46.09375 6.59375 50.34375 11.734375 
Q 54.59375 16.890625 54.59375 28.609375 
L 54.59375 72.90625 
L 64.5 72.90625 
L 64.5 27.390625 
Q 64.5 13.140625 57.4375 5.859375 
Q 50.390625 -1.421875 36.625 -1.421875 
Q 22.796875 -1.421875 15.734375 5.859375 
Q 8.6875 13.140625 8.6875 27.390625 
z
" id="DejaVuSans-85"/>
      <path d="M 54.890625 33.015625 
L 54.890625 0 
L 45.90625 0 
L 45.90625 32.71875 
Q 45.90625 40.484375 42.875 44.328125 
Q 39.84375 48.1875 33.796875 48.1875 
Q 26.515625 48.1875 22.3125 43.546875 
Q 18.109375 38.921875 18.109375 30.90625 
L 18.109375 0 
L 9.078125 0 
L 9.078125 54.6875 
L 18.109375 54.6875 
L 18.109375 46.1875 
Q 21.34375 51.125 25.703125 53.5625 
Q 30.078125 56 35.796875 56 
Q 45.21875 56 50.046875 50.171875 
Q 54.890625 44.34375 54.890625 33.015625 
z
" id="DejaVuSans-110"/>
      <path d="M 52 44.1875 
Q 55.375 50.25 60.0625 53.125 
Q 64.75 56 71.09375 56 
Q 79.640625 56 84.28125 50.015625 
Q 88.921875 44.046875 88.921875 33.015625 
L 88.921875 0 
L 79.890625 0 
L 79.890625 32.71875 
Q 79.890625 40.578125 77.09375 44.375 
Q 74.3125 48.1875 68.609375 48.1875 
Q 61.625 48.1875 57.5625 43.546875 
Q 53.515625 38.921875 53.515625 30.90625 
L 53.515625 0 
L 44.484375 0 
L 44.484375 32.71875 
Q 44.484375 40.625 41.703125 44.40625 
Q 38.921875 48.1875 33.109375 48.1875 
Q 26.21875 48.1875 22.15625 43.53125 
Q 18.109375 38.875 18.109375 30.90625 
L 18.109375 0 
L 9.078125 0 
L 9.078125 54.6875 
L 18.109375 54.6875 
L 18.109375 46.1875 
Q 21.1875 51.21875 25.484375 53.609375 
Q 29.78125 56 35.6875 56 
Q 41.65625 56 45.828125 52.96875 
Q 50 49.953125 52 44.1875 
z
" id="DejaVuSans-109"/>
      <path d="M 18.109375 8.203125 
L 18.109375 -20.796875 
L 9.078125 -20.796875 
L 9.078125 54.6875 
L 18.109375 54.6875 
L 18.109375 46.390625 
Q 20.953125 51.265625 25.265625 53.625 
Q 29.59375 56 35.59375 56 
Q 45.5625 56 51.78125 48.09375 
Q 58.015625 40.1875 58.015625 27.296875 
Q 58.015625 14.40625 51.78125 6.484375 
Q 45.5625 -1.421875 35.59375 -1.421875 
Q 29.59375 -1.421875 25.265625 0.953125 
Q 20.953125 3.328125 18.109375 8.203125 
z
M 48.6875 27.296875 
Q 48.6875 37.203125 44.609375 42.84375 
Q 40.53125 48.484375 33.40625 48.484375 
Q 26.265625 48.484375 22.1875 42.84375 
Q 18.109375 37.203125 18.109375 27.296875 
Q 18.109375 17.390625 22.1875 11.75 
Q 26.265625 6.109375 33.40625 6.109375 
Q 40.53125 6.109375 44.609375 11.75 
Q 48.6875 17.390625 48.6875 27.296875 
z
" id="DejaVuSans-112"/>
      <path d="M 32.171875 -5.078125 
Q 28.375 -14.84375 24.75 -17.8125 
Q 21.140625 -20.796875 15.09375 -20.796875 
L 7.90625 -20.796875 
L 7.90625 -13.28125 
L 13.1875 -13.28125 
Q 16.890625 -13.28125 18.9375 -11.515625 
Q 21 -9.765625 23.484375 -3.21875 
L 25.09375 0.875 
L 2.984375 54.6875 
L 12.5 54.6875 
L 29.59375 11.921875 
L 46.6875 54.6875 
L 56.203125 54.6875 
z
" id="DejaVuSans-121"/>
     </defs>
     <g transform="translate(118.195312 556.63267)rotate(-90)scale(0.1 -0.1)">
      <use xlink:href="#DejaVuSans-85"/>
      <use x="73.193359" xlink:href="#DejaVuSans-110"/>
      <use x="136.572266" xlink:href="#DejaVuSans-101"/>
      <use x="198.095703" xlink:href="#DejaVuSans-109"/>
      <use x="295.507812" xlink:href="#DejaVuSans-112"/>
      <use x="358.984375" xlink:href="#DejaVuSans-108"/>
      <use x="386.767578" xlink:href="#DejaVuSans-111"/>
      <use x="447.949219" xlink:href="#DejaVuSans-121"/>
      <use x="507.128906" xlink:href="#DejaVuSans-109"/>
      <use x="604.541016" xlink:href="#DejaVuSans-101"/>
      <use x="666.064453" xlink:href="#DejaVuSans-110"/>
      <use x="729.443359" xlink:href="#DejaVuSans-116"/>
      <use x="768.652344" xlink:href="#DejaVuSans-32"/>
      <use x="800.439453" xlink:href="#DejaVuSans-114"/>
      <use x="841.552734" xlink:href="#DejaVuSans-97"/>
      <use x="902.832031" xlink:href="#DejaVuSans-116"/>
      <use x="942.041016" xlink:href="#DejaVuSans-101"/>
     </g>
    </g>
   </g>
   <g id="line2d_52">
    <path clip-path="url(#p7e8bfda434)" d="M 184.581818 593.809917 
L 187.36129 595.236128 
L 190.171306 593.096812 
L 192.981321 591.670602 
L 195.73025 573.842975 
L 198.509722 548.171192 
L 201.319737 530.343566 
L 204.129753 524.638725 
L 206.878681 536.761511 
L 209.658153 554.589138 
L 212.468169 574.55608 
L 215.278185 583.113341 
L 218.027113 598.801653 
L 220.806585 607.358914 
L 223.616601 605.932704 
L 226.426616 601.654073 
L 229.206088 608.072019 
L 231.98556 610.211334 
L 234.795576 604.506494 
L 237.605591 613.063754 
L 243.133992 618.768595 
L 245.944007 615.20307 
L 248.754023 594.523022 
L 251.502951 561.007084 
L 254.282423 549.597403 
L 257.092439 546.031877 
L 262.651383 572.416765 
L 265.430855 579.547816 
L 268.240871 585.965762 
L 271.050886 583.113341 
L 273.830358 587.391972 
L 276.60983 583.826446 
L 279.419846 585.252656 
L 282.229861 585.252656 
L 284.97879 589.531287 
L 287.758262 585.965762 
L 290.568277 583.113341 
L 293.378293 568.138135 
L 296.127221 538.900826 
L 298.906693 516.081464 
L 301.716709 516.794569 
L 304.526725 537.474616 
L 307.275653 548.884298 
L 310.055125 564.572609 
L 312.865141 561.007084 
L 315.675156 553.876033 
L 318.454628 563.859504 
L 321.2341 561.720189 
L 324.044116 555.302243 
L 326.854132 539.613932 
L 329.60306 528.20425 
L 332.382532 523.92562 
L 335.192547 528.917355 
L 340.751491 553.162928 
L 343.530963 555.302243 
L 346.340979 554.589138 
L 349.150995 555.302243 
L 351.899923 550.310508 
L 354.679395 551.023613 
L 357.489411 556.015348 
L 360.299426 554.589138 
L 363.078898 556.728453 
L 365.85837 562.433294 
L 368.668386 566.711924 
L 371.478402 567.42503 
L 374.22733 568.85124 
L 377.006802 573.842975 
L 379.816817 580.260921 
L 382.626833 585.965762 
L 385.375761 590.957497 
L 388.155233 591.670602 
L 393.775265 594.523022 
L 396.524193 591.670602 
L 399.303665 591.670602 
L 402.113681 592.383707 
L 404.923696 590.244392 
L 410.48264 597.375443 
L 413.292656 598.088548 
L 416.102672 600.940968 
L 418.8516 600.940968 
L 421.631072 600.227863 
L 424.441088 597.375443 
L 427.251103 597.375443 
L 432.779503 571.70366 
L 435.589519 563.146399 
L 438.399535 548.884298 
L 441.148463 546.744982 
L 443.927935 547.458087 
L 446.737951 544.605667 
L 449.547966 546.744982 
L 452.327438 550.310508 
L 455.10691 551.736718 
L 457.916926 554.589138 
L 460.726942 558.867769 
L 463.47587 568.138135 
L 466.255342 568.138135 
L 469.065358 570.990555 
L 471.875373 571.70366 
L 474.624301 563.859504 
L 477.403773 562.433294 
L 480.213789 553.162928 
L 483.023805 532.482881 
L 485.772733 496.827627 
L 488.552205 483.991736 
L 491.362221 492.548996 
L 494.172236 496.114522 
L 496.951708 508.237308 
L 499.73118 511.802834 
L 502.541196 508.237308 
L 505.351212 507.524203 
L 508.10014 513.229044 
L 510.879612 521.0732 
L 516.499643 531.056671 
L 522.028044 545.318772 
L 524.838059 544.605667 
L 527.648075 547.458087 
L 530.397003 548.171192 
L 533.176475 551.736718 
L 535.986491 548.171192 
L 538.796506 546.031877 
L 541.575978 538.900826 
L 544.35545 516.794569 
L 547.165466 509.663518 
L 549.975482 515.368359 
L 552.72441 514.655254 
L 555.503882 515.368359 
L 558.313898 515.368359 
L 561.123913 497.540732 
L 566.652314 471.868949 
L 569.462329 461.885478 
L 572.272345 445.484061 
L 575.021273 451.902007 
L 577.800745 456.893743 
L 580.610761 473.295159 
L 583.420776 491.122786 
L 586.200248 505.384888 
L 588.97972 514.655254 
L 591.789736 514.655254 
L 594.599752 517.507674 
L 597.34868 518.933884 
L 600.128152 517.507674 
L 602.938168 519.646989 
L 605.748183 523.212515 
L 608.497112 523.212515 
L 611.276584 520.360094 
L 614.086599 524.638725 
L 616.896615 527.491145 
L 619.645543 532.482881 
L 622.425015 539.613932 
L 625.235031 545.318772 
L 628.045046 548.884298 
L 630.824518 551.736718 
L 633.60399 556.728453 
L 636.414006 556.728453 
L 641.97295 562.433294 
L 644.752422 561.720189 
L 647.562438 561.720189 
L 650.372453 558.867769 
L 653.121382 560.293979 
L 655.900854 559.580874 
L 658.710869 551.736718 
L 661.520885 542.466352 
L 664.269813 532.482881 
L 667.049285 527.491145 
L 669.859301 526.77804 
L 672.669316 521.786305 
L 675.448788 516.081464 
L 678.22826 511.089728 
L 681.038276 510.376623 
L 683.848292 516.081464 
L 686.59722 521.0732 
L 689.376692 522.49941 
L 692.186708 528.20425 
L 694.996723 531.769776 
L 697.745652 533.195986 
L 700.525124 541.040142 
L 703.335139 545.318772 
L 706.145155 553.162928 
L 708.894083 556.728453 
L 711.673555 552.449823 
L 714.483571 552.449823 
L 717.293586 554.589138 
L 722.85253 556.015348 
L 725.662546 561.007084 
L 728.472562 559.580874 
L 731.22149 561.720189 
L 734.000962 566.711924 
L 736.810978 569.564345 
L 739.620993 573.842975 
L 742.369922 574.55608 
L 745.149394 579.547816 
L 747.959409 576.695396 
L 750.769425 578.834711 
L 753.518353 581.687131 
L 759.107841 583.113341 
L 761.917856 586.678867 
L 764.697328 587.391972 
L 767.4768 589.531287 
L 770.286816 588.105077 
L 773.096832 590.244392 
L 775.84576 583.113341 
L 778.625232 579.547816 
L 781.435248 570.27745 
L 784.245263 556.015348 
L 786.994192 551.736718 
L 789.773664 548.884298 
L 792.583679 551.023613 
L 795.393695 548.171192 
L 798.142623 548.171192 
L 800.922095 542.466352 
L 803.732111 542.466352 
L 806.542126 548.884298 
L 809.321598 551.736718 
L 812.10107 553.876033 
L 814.911086 557.441558 
L 817.721102 557.441558 
L 820.47003 560.293979 
L 823.249502 564.572609 
L 826.059518 567.42503 
L 828.869533 567.42503 
L 831.618462 572.416765 
L 834.397934 574.55608 
L 837.207949 574.55608 
L 840.017965 578.834711 
L 842.766893 577.408501 
L 845.546365 577.408501 
L 848.356381 573.842975 
L 851.166397 570.990555 
L 853.945868 566.711924 
L 856.72534 559.580874 
L 859.535356 545.318772 
L 862.345372 526.77804 
L 865.0943 496.827627 
L 867.873772 474.72137 
L 870.683788 467.590319 
L 873.493803 461.172373 
L 876.242732 463.311688 
L 879.022204 467.590319 
L 881.832219 471.155844 
L 884.642235 470.442739 
L 887.391163 480.42621 
L 890.170635 479.713105 
L 892.980651 481.139315 
L 898.570139 496.827627 
L 901.349611 498.253837 
L 904.159626 501.819362 
L 906.969642 506.811098 
L 909.71857 508.237308 
L 912.498042 512.515939 
L 918.118073 525.35183 
L 920.867002 531.056671 
L 923.646474 541.040142 
L 926.456489 543.892562 
L 929.266505 551.736718 
L 932.015433 555.302243 
L 934.794905 557.441558 
L 937.604921 564.572609 
L 940.414937 565.998819 
L 943.194409 568.85124 
L 945.973881 568.138135 
L 948.783896 568.85124 
L 951.593912 571.70366 
L 954.34284 575.98229 
L 957.122312 579.547816 
L 959.932328 581.687131 
L 962.742343 585.252656 
L 968.270744 589.531287 
L 971.080759 593.096812 
L 973.890775 591.670602 
L 976.639703 590.957497 
L 979.419175 595.236128 
L 982.229191 596.662338 
L 985.039207 596.662338 
L 987.818679 592.383707 
L 990.598151 394.140496 
L 993.408166 485.417946 
L 996.218182 526.064935 
L 996.218182 526.064935 
" style="fill:none;stroke:#1f77b4;stroke-linecap:square;stroke-width:1.5;"/>
   </g>
   <g id="patch_8">
    <path d="M 144 630 
L 144 382.909091 
" style="fill:none;stroke:#000000;stroke-linecap:square;stroke-linejoin:miter;stroke-width:0.8;"/>
   </g>
   <g id="patch_9">
    <path d="M 1036.8 630 
L 1036.8 382.909091 
" style="fill:none;stroke:#000000;stroke-linecap:square;stroke-linejoin:miter;stroke-width:0.8;"/>
   </g>
   <g id="patch_10">
    <path d="M 144 630 
L 1036.8 630 
" style="fill:none;stroke:#000000;stroke-linecap:square;stroke-linejoin:miter;stroke-width:0.8;"/>
   </g>
   <g id="patch_11">
    <path d="M 144 382.909091 
L 1036.8 382.909091 
" style="fill:none;stroke:#000000;stroke-linecap:square;stroke-linejoin:miter;stroke-width:0.8;"/>
   </g>
  </g>
  <g id="text_30">
   <!-- Growth and Fluctuations USA -->
   <defs>
    <path d="M 4.203125 54.6875 
L 13.1875 54.6875 
L 24.421875 12.015625 
L 35.59375 54.6875 
L 46.1875 54.6875 
L 57.421875 12.015625 
L 68.609375 54.6875 
L 77.59375 54.6875 
L 63.28125 0 
L 52.6875 0 
L 40.921875 44.828125 
L 29.109375 0 
L 18.5 0 
z
" id="DejaVuSans-119"/>
    <path d="M 54.890625 33.015625 
L 54.890625 0 
L 45.90625 0 
L 45.90625 32.71875 
Q 45.90625 40.484375 42.875 44.328125 
Q 39.84375 48.1875 33.796875 48.1875 
Q 26.515625 48.1875 22.3125 43.546875 
Q 18.109375 38.921875 18.109375 30.90625 
L 18.109375 0 
L 9.078125 0 
L 9.078125 75.984375 
L 18.109375 75.984375 
L 18.109375 46.1875 
Q 21.34375 51.125 25.703125 53.5625 
Q 30.078125 56 35.796875 56 
Q 45.21875 56 50.046875 50.171875 
Q 54.890625 44.34375 54.890625 33.015625 
z
" id="DejaVuSans-104"/>
    <path d="M 45.40625 46.390625 
L 45.40625 75.984375 
L 54.390625 75.984375 
L 54.390625 0 
L 45.40625 0 
L 45.40625 8.203125 
Q 42.578125 3.328125 38.25 0.953125 
Q 33.9375 -1.421875 27.875 -1.421875 
Q 17.96875 -1.421875 11.734375 6.484375 
Q 5.515625 14.40625 5.515625 27.296875 
Q 5.515625 40.1875 11.734375 48.09375 
Q 17.96875 56 27.875 56 
Q 33.9375 56 38.25 53.625 
Q 42.578125 51.265625 45.40625 46.390625 
z
M 14.796875 27.296875 
Q 14.796875 17.390625 18.875 11.75 
Q 22.953125 6.109375 30.078125 6.109375 
Q 37.203125 6.109375 41.296875 11.75 
Q 45.40625 17.390625 45.40625 27.296875 
Q 45.40625 37.203125 41.296875 42.84375 
Q 37.203125 48.484375 30.078125 48.484375 
Q 22.953125 48.484375 18.875 42.84375 
Q 14.796875 37.203125 14.796875 27.296875 
z
" id="DejaVuSans-100"/>
    <path d="M 9.8125 72.90625 
L 51.703125 72.90625 
L 51.703125 64.59375 
L 19.671875 64.59375 
L 19.671875 43.109375 
L 48.578125 43.109375 
L 48.578125 34.8125 
L 19.671875 34.8125 
L 19.671875 0 
L 9.8125 0 
z
" id="DejaVuSans-70"/>
    <path d="M 8.5 21.578125 
L 8.5 54.6875 
L 17.484375 54.6875 
L 17.484375 21.921875 
Q 17.484375 14.15625 20.5 10.265625 
Q 23.53125 6.390625 29.59375 6.390625 
Q 36.859375 6.390625 41.078125 11.03125 
Q 45.3125 15.671875 45.3125 23.6875 
L 45.3125 54.6875 
L 54.296875 54.6875 
L 54.296875 0 
L 45.3125 0 
L 45.3125 8.40625 
Q 42.046875 3.421875 37.71875 1 
Q 33.40625 -1.421875 27.6875 -1.421875 
Q 18.265625 -1.421875 13.375 4.4375 
Q 8.5 10.296875 8.5 21.578125 
z
M 31.109375 56 
z
" id="DejaVuSans-117"/>
    <path d="M 48.78125 52.59375 
L 48.78125 44.1875 
Q 44.96875 46.296875 41.140625 47.34375 
Q 37.3125 48.390625 33.40625 48.390625 
Q 24.65625 48.390625 19.8125 42.84375 
Q 14.984375 37.3125 14.984375 27.296875 
Q 14.984375 17.28125 19.8125 11.734375 
Q 24.65625 6.203125 33.40625 6.203125 
Q 37.3125 6.203125 41.140625 7.25 
Q 44.96875 8.296875 48.78125 10.40625 
L 48.78125 2.09375 
Q 45.015625 0.34375 40.984375 -0.53125 
Q 36.96875 -1.421875 32.421875 -1.421875 
Q 20.0625 -1.421875 12.78125 6.34375 
Q 5.515625 14.109375 5.515625 27.296875 
Q 5.515625 40.671875 12.859375 48.328125 
Q 20.21875 56 33.015625 56 
Q 37.15625 56 41.109375 55.140625 
Q 45.0625 54.296875 48.78125 52.59375 
z
" id="DejaVuSans-99"/>
    <path d="M 9.421875 54.6875 
L 18.40625 54.6875 
L 18.40625 0 
L 9.421875 0 
z
M 9.421875 75.984375 
L 18.40625 75.984375 
L 18.40625 64.59375 
L 9.421875 64.59375 
z
" id="DejaVuSans-105"/>
    <path d="M 44.28125 53.078125 
L 44.28125 44.578125 
Q 40.484375 46.53125 36.375 47.5 
Q 32.28125 48.484375 27.875 48.484375 
Q 21.1875 48.484375 17.84375 46.4375 
Q 14.5 44.390625 14.5 40.28125 
Q 14.5 37.15625 16.890625 35.375 
Q 19.28125 33.59375 26.515625 31.984375 
L 29.59375 31.296875 
Q 39.15625 29.25 43.1875 25.515625 
Q 47.21875 21.78125 47.21875 15.09375 
Q 47.21875 7.46875 41.1875 3.015625 
Q 35.15625 -1.421875 24.609375 -1.421875 
Q 20.21875 -1.421875 15.453125 -0.5625 
Q 10.6875 0.296875 5.421875 2 
L 5.421875 11.28125 
Q 10.40625 8.6875 15.234375 7.390625 
Q 20.0625 6.109375 24.8125 6.109375 
Q 31.15625 6.109375 34.5625 8.28125 
Q 37.984375 10.453125 37.984375 14.40625 
Q 37.984375 18.0625 35.515625 20.015625 
Q 33.0625 21.96875 24.703125 23.78125 
L 21.578125 24.515625 
Q 13.234375 26.265625 9.515625 29.90625 
Q 5.8125 33.546875 5.8125 39.890625 
Q 5.8125 47.609375 11.28125 51.796875 
Q 16.75 56 26.8125 56 
Q 31.78125 56 36.171875 55.265625 
Q 40.578125 54.546875 44.28125 53.078125 
z
" id="DejaVuSans-115"/>
    <path d="M 53.515625 70.515625 
L 53.515625 60.890625 
Q 47.90625 63.578125 42.921875 64.890625 
Q 37.9375 66.21875 33.296875 66.21875 
Q 25.25 66.21875 20.875 63.09375 
Q 16.5 59.96875 16.5 54.203125 
Q 16.5 49.359375 19.40625 46.890625 
Q 22.3125 44.4375 30.421875 42.921875 
L 36.375 41.703125 
Q 47.40625 39.59375 52.65625 34.296875 
Q 57.90625 29 57.90625 20.125 
Q 57.90625 9.515625 50.796875 4.046875 
Q 43.703125 -1.421875 29.984375 -1.421875 
Q 24.8125 -1.421875 18.96875 -0.25 
Q 13.140625 0.921875 6.890625 3.21875 
L 6.890625 13.375 
Q 12.890625 10.015625 18.65625 8.296875 
Q 24.421875 6.59375 29.984375 6.59375 
Q 38.421875 6.59375 43.015625 9.90625 
Q 47.609375 13.234375 47.609375 19.390625 
Q 47.609375 24.75 44.3125 27.78125 
Q 41.015625 30.8125 33.5 32.328125 
L 27.484375 33.5 
Q 16.453125 35.6875 11.515625 40.375 
Q 6.59375 45.0625 6.59375 53.421875 
Q 6.59375 63.09375 13.40625 68.65625 
Q 20.21875 74.21875 32.171875 74.21875 
Q 37.3125 74.21875 42.625 73.28125 
Q 47.953125 72.359375 53.515625 70.515625 
z
" id="DejaVuSans-83"/>
    <path d="M 34.1875 63.1875 
L 20.796875 26.90625 
L 47.609375 26.90625 
z
M 28.609375 72.90625 
L 39.796875 72.90625 
L 67.578125 0 
L 57.328125 0 
L 50.6875 18.703125 
L 17.828125 18.703125 
L 11.1875 0 
L 0.78125 0 
z
" id="DejaVuSans-65"/>
   </defs>
   <g transform="translate(458.92125 26.5575)scale(0.16 -0.16)">
    <use xlink:href="#DejaVuSans-71"/>
    <use x="77.490234" xlink:href="#DejaVuSans-114"/>
    <use x="116.353516" xlink:href="#DejaVuSans-111"/>
    <use x="177.535156" xlink:href="#DejaVuSans-119"/>
    <use x="259.322266" xlink:href="#DejaVuSans-116"/>
    <use x="298.53125" xlink:href="#DejaVuSans-104"/>
    <use x="361.910156" xlink:href="#DejaVuSans-32"/>
    <use x="393.697266" xlink:href="#DejaVuSans-97"/>
    <use x="454.976562" xlink:href="#DejaVuSans-110"/>
    <use x="518.355469" xlink:href="#DejaVuSans-100"/>
    <use x="581.832031" xlink:href="#DejaVuSans-32"/>
    <use x="613.619141" xlink:href="#DejaVuSans-70"/>
    <use x="671.138672" xlink:href="#DejaVuSans-108"/>
    <use x="698.921875" xlink:href="#DejaVuSans-117"/>
    <use x="762.300781" xlink:href="#DejaVuSans-99"/>
    <use x="817.28125" xlink:href="#DejaVuSans-116"/>
    <use x="856.490234" xlink:href="#DejaVuSans-117"/>
    <use x="919.869141" xlink:href="#DejaVuSans-97"/>
    <use x="981.148438" xlink:href="#DejaVuSans-116"/>
    <use x="1020.357422" xlink:href="#DejaVuSans-105"/>
    <use x="1048.140625" xlink:href="#DejaVuSans-111"/>
    <use x="1109.322266" xlink:href="#DejaVuSans-110"/>
    <use x="1172.701172" xlink:href="#DejaVuSans-115"/>
    <use x="1224.800781" xlink:href="#DejaVuSans-32"/>
    <use x="1256.587891" xlink:href="#DejaVuSans-85"/>
    <use x="1329.78125" xlink:href="#DejaVuSans-83"/>
    <use x="1395.132812" xlink:href="#DejaVuSans-65"/>
   </g>
  </g>
 </g>
 <defs>
  <clipPath id="p7f0c99879b">
   <rect height="247.090909" width="892.8" x="144" y="86.4"/>
  </clipPath>
  <clipPath id="p7e8bfda434">
   <rect height="247.090909" width="892.8" x="144" y="382.909091"/>
  </clipPath>
 </defs>
</svg>
