
            <svg id="trend-chart" width="660" height="400" title="Stack Overflow Trends Chart" version="1.1" xmlns="http://www.w3.org/2000/svg"><g></g><g class="chart-area" transform="translate(100, 20)"><g transform="translate(0,300)" fill="none" font-size="10" font-family="sans-serif" text-anchor="middle"><path class="domain" stroke="#000" d="M0.5,6V0.5H410.5V6"></path><g class="tick" opacity="1" transform="translate(13.739109014770683,0)"><line stroke="#000" y2="6" x1="0.5" x2="0.5"></line><text fill="#000" y="9" x="0.5" dy="0.71em" style="font-size: 12px;">2009</text></g><g class="tick" opacity="1" transform="translate(46.50649125528013,0)"><line stroke="#000" y2="6" x1="0.5" x2="0.5"></line><text fill="#000" y="9" x="0.5" dy="0.71em" style="font-size: 12px;">2010</text></g><g class="tick" opacity="1" transform="translate(79.27387349578957,0)"><line stroke="#000" y2="6" x1="0.5" x2="0.5"></line><text fill="#000" y="9" x="0.5" dy="0.71em" style="font-size: 12px;">2011</text></g><g class="tick" opacity="1" transform="translate(112.04125573629902,0)"><line stroke="#000" y2="6" x1="0.5" x2="0.5"></line><text fill="#000" y="9" x="0.5" dy="0.71em" style="font-size: 12px;">2012</text></g><g class="tick" opacity="1" transform="translate(144.8984116267825,0)"><line stroke="#000" y2="6" x1="0.5" x2="0.5"></line><text fill="#000" y="9" x="0.5" dy="0.71em" style="font-size: 12px;">2013</text></g><g class="tick" opacity="1" transform="translate(177.6657938672919,0)"><line stroke="#000" y2="6" x1="0.5" x2="0.5"></line><text fill="#000" y="9" x="0.5" dy="0.71em" style="font-size: 12px;">2014</text></g><g class="tick" opacity="1" transform="translate(210.43317610780133,0)"><line stroke="#000" y2="6" x1="0.5" x2="0.5"></line><text fill="#000" y="9" x="0.5" dy="0.71em" style="font-size: 12px;">2015</text></g><g class="tick" opacity="1" transform="translate(243.2005583483108,0)"><line stroke="#000" y2="6" x1="0.5" x2="0.5"></line><text fill="#000" y="9" x="0.5" dy="0.71em" style="font-size: 12px;">2016</text></g><g class="tick" opacity="1" transform="translate(276.05771423879423,0)"><line stroke="#000" y2="6" x1="0.5" x2="0.5"></line><text fill="#000" y="9" x="0.5" dy="0.71em" style="font-size: 12px;">2017</text></g><g class="tick" opacity="1" transform="translate(308.82509647930374,0)"><line stroke="#000" y2="6" x1="0.5" x2="0.5"></line><text fill="#000" y="9" x="0.5" dy="0.71em" style="font-size: 12px;">2018</text></g><g class="tick" opacity="1" transform="translate(341.5924787198132,0)"><line stroke="#000" y2="6" x1="0.5" x2="0.5"></line><text fill="#000" y="9" x="0.5" dy="0.71em" style="font-size: 12px;">2019</text></g><g class="tick" opacity="1" transform="translate(374.35986096032264,0)"><line stroke="#000" y2="6" x1="0.5" x2="0.5"></line><text fill="#000" y="9" x="0.5" dy="0.71em" style="font-size: 12px;">2020</text></g><g class="tick" opacity="1" transform="translate(407.21701685080603,0)"><line stroke="#000" y2="6" x1="0.5" x2="0.5"></line><text fill="#000" y="9" x="0.5" dy="0.71em" style="font-size: 12px;">2021</text></g></g><g class="grid-lines" transform="translate(0,300)" fill="none" font-size="10" font-family="sans-serif" text-anchor="middle"><path class="domain" stroke="#000" d="M0.5,-300V0.5H410.5V-300"></path><g class="tick" opacity="1" transform="translate(13.739109014770683,0)"><line stroke="#000" y2="-300" x1="0.5" x2="0.5" style="stroke: #ccc; fill: none;"></line></g><g class="tick" opacity="1" transform="translate(46.50649125528013,0)"><line stroke="#000" y2="-300" x1="0.5" x2="0.5" style="stroke: #ccc; fill: none;"></line></g><g class="tick" opacity="1" transform="translate(79.27387349578957,0)"><line stroke="#000" y2="-300" x1="0.5" x2="0.5" style="stroke: #ccc; fill: none;"></line></g><g class="tick" opacity="1" transform="translate(112.04125573629902,0)"><line stroke="#000" y2="-300" x1="0.5" x2="0.5" style="stroke: #ccc; fill: none;"></line></g><g class="tick" opacity="1" transform="translate(144.8984116267825,0)"><line stroke="#000" y2="-300" x1="0.5" x2="0.5" style="stroke: #ccc; fill: none;"></line></g><g class="tick" opacity="1" transform="translate(177.6657938672919,0)"><line stroke="#000" y2="-300" x1="0.5" x2="0.5" style="stroke: #ccc; fill: none;"></line></g><g class="tick" opacity="1" transform="translate(210.43317610780133,0)"><line stroke="#000" y2="-300" x1="0.5" x2="0.5" style="stroke: #ccc; fill: none;"></line></g><g class="tick" opacity="1" transform="translate(243.2005583483108,0)"><line stroke="#000" y2="-300" x1="0.5" x2="0.5" style="stroke: #ccc; fill: none;"></line></g><g class="tick" opacity="1" transform="translate(276.05771423879423,0)"><line stroke="#000" y2="-300" x1="0.5" x2="0.5" style="stroke: #ccc; fill: none;"></line></g><g class="tick" opacity="1" transform="translate(308.82509647930374,0)"><line stroke="#000" y2="-300" x1="0.5" x2="0.5" style="stroke: #ccc; fill: none;"></line></g><g class="tick" opacity="1" transform="translate(341.5924787198132,0)"><line stroke="#000" y2="-300" x1="0.5" x2="0.5" style="stroke: #ccc; fill: none;"></line></g><g class="tick" opacity="1" transform="translate(374.35986096032264,0)"><line stroke="#000" y2="-300" x1="0.5" x2="0.5" style="stroke: #ccc; fill: none;"></line></g><g class="tick" opacity="1" transform="translate(407.21701685080603,0)"><line stroke="#000" y2="-300" x1="0.5" x2="0.5" style="stroke: #ccc; fill: none;"></line></g></g><text x="205" y="360" class="axis-label x-axis-label" style="text-anchor: middle; font-weight: bold;">Year</text><g fill="none" font-size="10" font-family="sans-serif" text-anchor="end"><path class="domain" stroke="#000" d="M-6,300.5H0.5V0.5H-6"></path><g class="tick" opacity="1" transform="translate(0,300)"><line stroke="#000" x2="-6" y1="0.5" y2="0.5"></line><text fill="#000" x="-9" y="0.5" dy="0.32em" style="font-size: 12px;">0.00%</text></g><g class="tick" opacity="1" transform="translate(0,262.5)"><line stroke="#000" x2="-6" y1="0.5" y2="0.5"></line><text fill="#000" x="-9" y="0.5" dy="0.32em" style="font-size: 12px;">0.50%</text></g><g class="tick" opacity="1" transform="translate(0,225)"><line stroke="#000" x2="-6" y1="0.5" y2="0.5"></line><text fill="#000" x="-9" y="0.5" dy="0.32em" style="font-size: 12px;">1.00%</text></g><g class="tick" opacity="1" transform="translate(0,187.5)"><line stroke="#000" x2="-6" y1="0.5" y2="0.5"></line><text fill="#000" x="-9" y="0.5" dy="0.32em" style="font-size: 12px;">1.50%</text></g><g class="tick" opacity="1" transform="translate(0,150)"><line stroke="#000" x2="-6" y1="0.5" y2="0.5"></line><text fill="#000" x="-9" y="0.5" dy="0.32em" style="font-size: 12px;">2.00%</text></g><g class="tick" opacity="1" transform="translate(0,112.5)"><line stroke="#000" x2="-6" y1="0.5" y2="0.5"></line><text fill="#000" x="-9" y="0.5" dy="0.32em" style="font-size: 12px;">2.50%</text></g><g class="tick" opacity="1" transform="translate(0,75)"><line stroke="#000" x2="-6" y1="0.5" y2="0.5"></line><text fill="#000" x="-9" y="0.5" dy="0.32em" style="font-size: 12px;">3.00%</text></g><g class="tick" opacity="1" transform="translate(0,37.49999999999994)"><line stroke="#000" x2="-6" y1="0.5" y2="0.5"></line><text fill="#000" x="-9" y="0.5" dy="0.32em" style="font-size: 12px;">3.50%</text></g><g class="tick" opacity="1" transform="translate(0,0)"><line stroke="#000" x2="-6" y1="0.5" y2="0.5"></line><text fill="#000" x="-9" y="0.5" dy="0.32em" style="font-size: 12px;">4.00%</text></g></g><g class="grid-lines" fill="none" font-size="10" font-family="sans-serif" text-anchor="end"><path class="domain" stroke="#000" d="M410,300.5H0.5V0.5H410"></path><g class="tick" opacity="1" transform="translate(0,300)"><line stroke="#000" x2="410" y1="0.5" y2="0.5" style="stroke: #ccc; fill: none;"></line></g><g class="tick" opacity="1" transform="translate(0,262.5)"><line stroke="#000" x2="410" y1="0.5" y2="0.5" style="stroke: #ccc; fill: none;"></line></g><g class="tick" opacity="1" transform="translate(0,225)"><line stroke="#000" x2="410" y1="0.5" y2="0.5" style="stroke: #ccc; fill: none;"></line></g><g class="tick" opacity="1" transform="translate(0,187.5)"><line stroke="#000" x2="410" y1="0.5" y2="0.5" style="stroke: #ccc; fill: none;"></line></g><g class="tick" opacity="1" transform="translate(0,150)"><line stroke="#000" x2="410" y1="0.5" y2="0.5" style="stroke: #ccc; fill: none;"></line></g><g class="tick" opacity="1" transform="translate(0,112.5)"><line stroke="#000" x2="410" y1="0.5" y2="0.5" style="stroke: #ccc; fill: none;"></line></g><g class="tick" opacity="1" transform="translate(0,75)"><line stroke="#000" x2="410" y1="0.5" y2="0.5" style="stroke: #ccc; fill: none;"></line></g><g class="tick" opacity="1" transform="translate(0,37.49999999999994)"><line stroke="#000" x2="410" y1="0.5" y2="0.5" style="stroke: #ccc; fill: none;"></line></g><g class="tick" opacity="1" transform="translate(0,0)"><line stroke="#000" x2="410" y1="0.5" y2="0.5" style="stroke: #ccc; fill: none;"></line></g></g><g class="lines"><path class="line" d="M2.782983149193953,296.76421945785L5.476192648413908,300L8.262916366356778,299.402866242075L10.956125865576732,299.37269989965L13.739109014770683,296.18611746765L16.52209216396464,296.126033057925L19.035754363236595,298.519103564025L21.81499694368163,295.73883812325L24.50820644290159,299.412846909675L27.29118959209554,298.661574702L29.984399091315495,288.089677720725L32.76738224050945,289.129764401175L35.5503653897034,268.3641031911L38.243574888923355,284.798844989925L41.030298606866225,281.515469323575L43.72350810608618,283.978210366125L46.50649125528013,284.1984938139L49.289474404474085,279.42756930555L51.80313660374604,279.9067131816L54.58237918419108,275.861444692575L57.27558868341104,279.807077691975L60.05857183260499,275.896435922475L62.751781331824944,270.9725438307L65.5347644810189,266.46919431285L68.31774763021285,270.9015584928L71.0109571294328,274.70170073925L73.79768084737567,273.7921275306L76.49089034659562,275.824636466175L79.27387349578957,276.442947960975L82.05685664498353,270.7357859532L84.57051884425549,268.49868620115L87.34976142470053,262.522439295825L90.04297092392048,267.96955482435L92.82595407311443,266.29554655875L95.51916357233439,266.085657370575L98.30214672152835,258.911409446175L101.08512987072228,254.9297434236L103.77833936994226,253.9754535753L106.56506308788512,258.150630153675L109.25827258710508,255.53560048665L112.04125573629902,255.392161088175L114.82423888549299,250.68263802397502L117.42767473473893,250.048322208L120.20691731518396,250.874125874175L122.90012681440392,251.040300465075L125.68310996359789,244.01483740935L128.37631946281783,240.62429314635L131.15930261201177,242.02800826200001L133.94228576120574,239.6671447761L136.6354952604257,236.3998070895L139.42221897836856,231.53611393695002L142.11542847758852,232.360772214525L144.8984116267825,227.8772622993L147.68139477597643,218.37825781785L150.19505697524838,219.83105297219998L152.97429955569342,219.25763834445002L155.66750905491338,219.56971526872502L158.45049220410735,215.594397631575L161.14370170332728,216.04541025585002L163.92668485252122,215.07237515145002L166.7096680017152,222.24154484362498L169.40287750093515,214.59833810055L172.189601218878,206.8977831186L174.88281071809797,213.455090290725L177.6657938672919,206.46042434257498L180.44877701648588,195.4265924736L182.96243921575783,198.30606407879998L185.74168179620287,194.394957465225L188.43489129542283,189.97669394219997L191.21787444461677,189.2025535998L193.91108394383673,188.122903892475L196.6940670930307,186.118132355775L199.47705024222464,192.91203327007503L202.17025974144457,179.12546272965L204.95698345938746,177.84326448217502L207.65019295860742,185.729852411175L210.43317610780133,177.984709590975L213.2161592569953,166.9596305676L215.7298214562673,158.5705680954L218.50906403671232,167.82463359555L221.20227353593225,160.88435006385L223.98525668512622,162.228291369L226.67846618434618,146.458210220775L229.46144933354014,154.8397812078L232.2444324827341,158.656095659025L234.93764198195404,151.001946207075L237.72436569989694,150.164932758225L240.41757519911687,160.91366713665L243.2005583483108,152.666822134125L245.98354149750477,155.77693285350003L248.5869773467507,148.4776664538L251.36621992719577,141.553347414075L254.05942942641573,148.45465992959998L256.84241257560967,141.64854854752502L259.53562207482963,140.0576122785L262.31860522402354,142.532017519575L265.1015883732175,154.50364732005L267.79479787243747,136.73721603975L270.58152159038036,146.26621882770002L273.2747310896003,153.2252254491L276.05771423879423,150.53456878125L278.8406973879882,141.03805073437496L281.35435958726015,127.21884612502501L284.1336021677052,119.64521480077502L286.82681166692515,124.78510106062498L289.6097948161191,111.16770207405003L292.303004315339,107.03771204265001L295.085987464533,105.04482903607501L297.86897061372696,102.99846439830003L300.5621801129469,97.92548085472501L303.3489038308898,98.00208737145002L306.04211333010977,106.78438468425L308.82509647930374,101.76793079167498L311.60807962849765,77.17344781949998L314.1217418277696,76.62664092892499L316.9009844082147,79.40218099672501L319.5941939074346,86.43155575357503L322.37717705662857,79.515591292425L325.0703865558485,90.87332211584999L327.85336970504244,102.78983339909999L330.6363528542364,101.32311686137498L333.32956235345637,93.60388510335002L336.11628607139926,84.77844593009999L338.8094955706192,104.11065208957498L341.5924787198132,98.6465273895L344.3754618690071,78.78721240282499L346.88912406827905,87.20481536527501L349.6683666487241,71.68889908560001L352.36157614794405,83.31594233722501L355.144559297138,78.50347075919998L357.837768796358,87.63419403765002L360.62075194555194,80.94713656395004L363.40373509474585,80.79297420450001L366.0969445939658,82.35344702137499L368.8836683119087,81.45735886005002L371.57687781112867,86.40828366382499L374.35986096032264,86.96866550467502L377.14284410951655,56.310558489674975L379.74627995876256,59.15367483299997L382.52552253920754,60.13552052205003L385.2187320384275,70.2590183856L388.00171518762147,72.08340277034998L390.69492468684143,86.28162159682498L393.4779078360354,82.25418152227502L396.2608909852293,60.842064001200015L398.95410048444927,43.29743253075003L401.7408242023921,40.5990683901L404.43403370161207,66.28881841305002L407.21701685080603,76.063675317525L410,66.70250630287498" data-legend="r" style="stroke: rgb(31, 119, 180); fill: none;"></path><path class="line" d="M2.782983149193953,300L5.476192648413908,300L8.262916366356778,300L10.956125865576732,300L13.739109014770683,300L16.52209216396464,300L19.035754363236595,300L21.81499694368163,300L24.50820644290159,300L27.29118959209554,300L29.984399091315495,300L32.76738224050945,300L35.5503653897034,300L38.243574888923355,300L41.030298606866225,300L43.72350810608618,300L46.50649125528013,300L49.289474404474085,300L51.80313660374604,300L54.58237918419108,300L57.27558868341104,300L60.05857183260499,300L62.751781331824944,300L65.5347644810189,300L68.31774763021285,300L71.0109571294328,300L73.79768084737567,300L76.49089034659562,300L79.27387349578957,300L82.05685664498353,300L84.57051884425549,299.925352337025L87.34976142470053,299.8425312576L90.04297092392048,300L92.82595407311443,299.9240890689L95.51916357233439,300L98.30214672152835,300L101.08512987072228,299.926355789925L103.77833936994226,299.7035455947L106.56506308788512,299.862110807775L109.25827258710508,299.92758241125L112.04125573629902,299.6121057486L114.82423888549299,299.75735615265L117.42767473473893,298.314341581875L120.20691731518396,298.48484848485L122.90012681440392,297.596727077625L125.68310996359789,297.12601834755L128.37631946281783,296.501074417575L131.15930261201177,295.315394607075L133.94228576120574,294.70664572095L136.6354952604257,294.825576722175L139.42221897836856,293.896236012225L142.11542847758852,293.102578745625L144.8984116267825,292.54397145045L147.68139477597643,290.848918598025L150.19505697524838,292.5031200888L152.97429955569342,291.66247352475L155.66750905491338,289.8052471401L158.45049220410735,288.328398998025L161.14370170332728,287.721216378525L163.92668485252122,287.47692343875L166.7096680017152,289.085738094L169.40287750093515,285.386464908525L172.189601218878,284.8655757033L174.88281071809797,284.91128013975L177.6657938672919,282.09407953252503L180.44877701648588,283.80129589635L182.96243921575783,280.9684999182L185.74168179620287,280.9286771052L188.43489129542283,280.351462157475L191.21787444461677,278.68925052585L193.91108394383673,279.46238016195L196.6940670930307,277.921330779225L199.47705024222464,277.895307838425L202.17025974144457,278.84043865905L204.95698345938746,276.749215962L207.65019295860742,279.834679837275L210.43317610780133,278.03362440675L213.2161592569953,276.046476984975L215.7298214562673,273.291275678475L218.50906403671232,272.033723494875L221.20227353593225,272.7931795083L223.98525668512622,269.134647760875L226.67846618434618,266.8559389533L229.46144933354014,268.609517904225L232.2444324827341,265.967269809375L234.93764198195404,261.709319690175L237.72436569989694,262.1077560687L240.41757519911687,260.93522413455L243.2005583483108,261.97987806915L245.98354149750477,258.38717945985L248.5869773467507,258.31171163985L251.36621992719577,254.165153754525L254.05942942641573,248.9934169629L256.84241257560967,247.393722208275L259.53562207482963,237.19293851085L262.31860522402354,243.03376392975L265.1015883732175,242.11861719L267.79479787243747,241.84275269017502L270.58152159038036,235.210959786525L273.2747310896003,234.042183191325L276.05771423879423,234.26942266575L278.8406973879882,232.496201832375L281.35435958726015,225.53829994755L284.1336021677052,222.22146992115L286.82681166692515,222.077185323675L289.6097948161191,216.0980876526L292.303004315339,212.60339268195L295.085987464533,208.89308076045L297.86897061372696,208.28354543707502L300.5621801129469,203.429089487025L303.3489038308898,204.41329953780001L306.04211333010977,202.6122584805L308.82509647930374,196.7344834524L311.60807962849765,190.6115219238L314.1217418277696,183.26150472675L316.9009844082147,184.46427795607502L319.5941939074346,183.733880775L322.37717705662857,168.0133359483L325.0703865558485,158.2417165341L327.85336970504244,160.96969619835L330.6363528542364,167.164929029025L333.32956235345637,164.00255995185L336.11628607139926,153.00836496795003L338.8094955706192,160.42955287245L341.5924787198132,157.1577748884L344.3754618690071,146.717886692925L346.88912406827905,145.36758370072502L349.6683666487241,140.5656976173L352.36157614794405,139.79237144512499L355.144559297138,137.5507307445L357.837768796358,123.95139082897501L360.62075194555194,111.784140969225L363.40373509474585,131.722642757475L366.0969445939658,114.601055737125L368.8836683119087,121.433427608025L371.57687781112867,110.69821189642502L374.35986096032264,106.06376700202503L377.14284410951655,103.66573792995001L379.74627995876256,115.45657015597502L382.52552253920754,115.60995642360001L385.2187320384275,114.411413911875L388.00171518762147,105.278352334575L390.69492468684143,106.25315642077499L393.4779078360354,110.45581171402497L396.2608909852293,107.791675575525L398.95410048444927,100.91910786209999L401.7408242023921,99.73470709815004L404.43403370161207,108.867397243125L407.21701685080603,121.75770901619998L410,102.66572742104998" data-legend="pandas" style="stroke: rgb(255, 127, 14); fill: none;"></path><path class="line" d="M2.782983149193953,294.067735672725L5.476192648413908,289.094308267575L8.262916366356778,293.43152866245L10.956125865576732,291.845098695225L13.739109014770683,290.942028985575L16.52209216396464,288.378099173625L19.035754363236595,291.4848454932L21.81499694368163,288.636901661925L24.50820644290159,287.669785101975L27.29118959209554,288.22185737745L29.984399091315495,290.89210649235L32.76738224050945,292.136425311525L35.5503653897034,288.30847291845L38.243574888923355,285.4235499903L41.030298606866225,276.992658626175L43.72350810608618,279.7724905872L46.50649125528013,284.534696073225L49.289474404474085,281.282460597675L51.80313660374604,282.219609506025L54.58237918419108,272.08979542575L57.27558868341104,269.92852577145L60.05857183260499,280.22966092515L62.751781331824944,281.2686073437L65.5347644810189,283.41232227495L68.31774763021285,279.655750641225L71.0109571294328,280.848951026925L73.79768084737567,283.1056689867L76.49089034659562,280.5946633518L79.27387349578957,283.321607156325L82.05685664498353,273.734913479775L84.57051884425549,267.9015048969L87.34976142470053,270.00220456245L90.04297092392048,277.27113609315L92.82595407311443,276.3157894737L95.51916357233439,278.7848605578L98.30214672152835,282.12015257475L101.08512987072228,280.3369959054L103.77833936994226,270.280445867475L106.56506308788512,270.215934475125L109.25827258710508,271.901975551875L112.04125573629902,270.4553878512L114.82423888549299,266.333166178725L117.42767473473893,267.69154698495L120.20691731518396,263.811188811225L122.90012681440392,269.87525336835L125.68310996359789,270.283029713175L128.37631946281783,270.577216693125L131.15930261201177,268.272445293075L133.94228576120574,268.58138105324997L136.6354952604257,262.07097500205L139.42221897836856,257.222787385575L142.11542847758852,262.564802385225L144.8984116267825,265.444175376L147.68139477597643,260.099317112925L150.19505697524838,256.968776000775L152.97429955569342,254.011959231L155.66750905491338,254.07850260434998L158.45049220410735,257.346466256775L161.14370170332728,257.767782284625L163.92668485252122,259.740954575925L166.7096680017152,259.558357335675L169.40287750093515,254.938207949175L172.189601218878,248.90006178480002L174.88281071809797,252.10577509807501L177.6657938672919,255.89029348245L180.44877701648588,250.645820255625L182.96243921575783,248.6113384887L185.74168179620287,245.52151399335L188.43489129542283,246.583195821975L191.21787444461677,252.44289457177499L193.91108394383673,252.996375216L196.6940670930307,257.632823927625L199.47705024222464,251.54145194835002L202.17025974144457,246.47108917432502L204.95698345938746,244.5315597852L207.65019295860742,251.54520191115L210.43317610780133,254.0744229864L213.2161592569953,246.819603753975L215.7298214562673,245.155972609725L218.50906403671232,239.426235144225L221.20227353593225,243.518478472425L223.98525668512622,251.016285147825L226.67846618434618,256.565864186475L229.46144933354014,257.523196846575L232.2444324827341,260.245702467225L234.93764198195404,257.2211829273L237.72436569989694,252.634695085875L240.41757519911687,261.85285309785L243.2005583483108,261.27194589735L245.98354149750477,257.105552648175L248.5869773467507,253.7087857257L251.36621992719577,257.080173264675L254.05942942641573,254.81135534055L256.84241257560967,259.561996744275L259.53562207482963,261.82901905425L262.31860522402354,261.16316460615L265.1015883732175,262.777953976875L267.79479787243747,261.501540513225L270.58152159038036,266.52710039572503L273.2747310896003,265.949742876375L276.05771423879423,266.258018531775L278.8406973879882,263.442636158625L281.35435958726015,259.674394178175L284.1336021677052,259.883543789625L286.82681166692515,259.802687384925L289.6097948161191,266.0831076918L292.303004315339,269.29763073045L295.085987464533,269.361143623425L297.86897061372696,273.049257378075L300.5621801129469,269.2021900665L303.3489038308898,266.542418368875L306.04211333010977,274.00220461305L308.82509647930374,272.886907755825L311.60807962849765,273.52946986515L314.1217418277696,275.375131944975L316.9009844082147,271.837585883775L319.5941939074346,276.15980157255L322.37717705662857,277.593645812925L325.0703865558485,278.128993079775L327.85336970504244,280.7180766441L330.6363528542364,277.494452120775L333.32956235345637,275.62398825435L336.11628607139926,274.80431350155L338.8094955706192,276.034510305225L341.5924787198132,279.334110339375L344.3754618690071,281.290717172025L346.88912406827905,278.598723728475L349.6683666487241,275.861164825875L352.36157614794405,276.9707764803L355.144559297138,279.8740325121L357.837768796358,280.843676417775L360.62075194555194,282.43392070485L363.40373509474585,283.3541559492L366.0969445939658,278.369296307625L368.8836683119087,279.553056673575L371.57687781112867,283.35056562465L374.35986096032264,283.169546658675L377.14284410951655,282.794111531625L379.74627995876256,285.211581291825L382.52552253920754,282.40971002265L385.2187320384275,284.26986520245L388.00171518762147,285.810353785425L390.69492468684143,284.925699768975L393.4779078360354,287.4468353415L396.2608909852293,287.260352077575L398.95410048444927,283.8978690183L401.7408242023921,279.9179442885L404.43403370161207,282.8084277954L407.21701685080603,283.064759884125L410,282.89893222605" data-legend="matlab" style="stroke: rgb(44, 160, 44); fill: none;"></path><path class="line" d="M2.782983149193953,300L5.476192648413908,300L8.262916366356778,300L10.956125865576732,300L13.739109014770683,300L16.52209216396464,300L19.035754363236595,300L21.81499694368163,300L24.50820644290159,300L27.29118959209554,300L29.984399091315495,300L32.76738224050945,300L35.5503653897034,300L38.243574888923355,299.583529999725L41.030298606866225,299.41006816995L43.72350810608618,300L46.50649125528013,299.831898870375L49.289474404474085,299.831373518925L51.80313660374604,299.710887959475L54.58237918419108,299.849134029375L57.27558868341104,300L60.05857183260499,300L62.751781331824944,300L65.5347644810189,299.88151658775L68.31774763021285,299.87670151905L71.0109571294328,299.527134593325L73.79768084737567,299.783406012675L76.49089034659562,299.56636119225L79.27387349578957,299.811543583725L82.05685664498353,299.63646939075L84.57051884425549,299.402818695825L87.34976142470053,299.606328143925L90.04297092392048,299.6249362392L92.82595407311443,299.696356275375L95.51916357233439,299.7758964144L98.30214672152835,299.368946561475L101.08512987072228,299.63177894955L103.77833936994226,299.629431993375L106.56506308788512,300L109.25827258710508,299.8551648225L112.04125573629902,299.87070191625L114.82423888549299,299.878678076325L117.42767473473893,299.7752455443L120.20691731518396,299.41724941725L122.90012681440392,299.7764397282L125.68310996359789,299.48268330255L128.37631946281783,299.628901832175L131.15930261201177,299.787063391275L133.94228576120574,299.0893153929L136.6354952604257,299.246443212L139.42221897836856,299.33875890135L142.11542847758852,299.44375635045L144.8984116267825,298.13599286265L147.68139477597643,298.52401912875L150.19505697524838,299.046639548925L152.97429955569342,298.859075324475L155.66750905491338,299.0526999555L158.45049220410735,298.0072876338L161.14370170332728,298.427975799375L163.92668485252122,299.029902519975L166.7096680017152,298.0979294604L169.40287750093515,298.41245719065L172.189601218878,298.04442832125L174.88281071809797,298.8672132237L177.6657938672919,299.205945877275L180.44877701648588,298.603559991075L182.96243921575783,298.122129024225L185.74168179620287,298.57446677355L188.43489129542283,298.383886497825L191.21787444461677,298.4316764457L193.91108394383673,298.221484467675L196.6940670930307,297.796723237875L199.47705024222464,298.463068438725L202.17025974144457,298.131701976075L204.95698345938746,298.06243466355L207.65019295860742,298.210750968825L210.43317610780133,298.41479763765L213.2161592569953,297.3186354834L215.7298214562673,298.2167765661L218.50906403671232,297.89757070245L221.20227353593225,298.2564928746L223.98525668512622,298.476774824625L226.67846618434618,298.1886385242L229.46144933354014,298.1315189229L232.2444324827341,298.0080469254L234.93764198195404,297.6144137928L237.72436569989694,298.3506724182L240.41757519911687,298.601708246475L243.2005583483108,299.042209414725L245.98354149750477,298.55816983695L248.5869773467507,298.353424876275L251.36621992719577,298.389068165475L254.05942942641573,297.6489153132L256.84241257560967,298.156322040075L259.53562207482963,298.1213387454L262.31860522402354,298.004102677875L265.1015883732175,298.766606759025L267.79479787243747,298.7497700727L270.58152159038036,298.447133523525L273.2747310896003,298.7423297643L276.05771423879423,299.01639344265L278.8406973879882,298.0145941716L281.35435958726015,298.687073298825L284.1336021677052,297.926470090425L286.82681166692515,298.541226558375L289.6097948161191,298.4737398462L292.303004315339,299.07472311795L295.085987464533,298.38070021935L297.86897061372696,298.55454494595L300.5621801129469,298.266789917175L303.3489038308898,298.702847771025L306.04211333010977,299.012083775325L308.82509647930374,298.96262951415L311.60807962849765,298.469055160125L314.1217418277696,297.725589451425L316.9009844082147,297.7656266487L319.5941939074346,298.1939243616L322.37717705662857,298.283977250475L325.0703865558485,298.5767240616L327.85336970504244,298.6159015413L330.6363528542364,298.063476112725L333.32956235345637,298.588261868025L336.11628607139926,298.48825881015L338.8094955706192,298.687604135775L341.5924787198132,299.292610133925L344.3754618690071,298.96918551915L346.88912406827905,298.68876206655L349.6683666487241,298.8692602668L352.36157614794405,298.90337030865L355.144559297138,298.835687831325L357.837768796358,298.9025022948L360.62075194555194,298.8986784141L363.40373509474585,299.00786359965L366.0969445939658,298.95815418L368.8836683119087,299.13317197875L371.57687781112867,299.201739447825L374.35986096032264,298.970614474575L377.14284410951655,299.532166174575L379.74627995876256,299.465478841875L382.52552253920754,298.3915493601L385.2187320384275,298.312217296425L388.00171518762147,298.014919959675L390.69492468684143,298.393094899275L393.4779078360354,298.624310722425L396.2608909852293,298.26277528335L398.95410048444927,298.403094448125L401.7408242023921,298.5655674492L404.43403370161207,297.550789713375L407.21701685080603,297.86642644215L410,296.8485837165" data-legend="stata" style="stroke: rgb(214, 39, 40); fill: none;"></path></g></g><g transform="translate(20, 150)"><text transform="rotate(-90)" x="-50" y="0" dy="1em" class="axis-label y-axis-label" style="text-anchor: middle; font-weight: bold;">% of Stack Overflow questions that month</text></g><g class="legend" transform="translate(530, 30)" style="font-size: 12px;"><text class="legend-title" style="font-weight: bold;">Tag</text><g class="legend-items" transform="translate(0,20)"><text y="0em" x="1em">r</text><text y="1em" x="1em">pandas</text><text y="2em" x="1em">matlab</text><text y="3em" x="1em">stata</text><circle cy="-0.25em" cx="0" r="0.4em" style="fill: rgb(31, 119, 180);"></circle><circle cy="0.75em" cx="0" r="0.4em" style="fill: rgb(255, 127, 14);"></circle><circle cy="1.75em" cx="0" r="0.4em" style="fill: rgb(44, 160, 44);"></circle><circle cy="2.75em" cx="0" r="0.4em" style="fill: rgb(214, 39, 40);"></circle></g><rect class="legend-box"></rect></g></svg>
        